<?xml version="1.0" encoding="utf-8"?>
<!-- Generator: Adobe Illustrator 12.0.1, SVG Export Plug-In . SVG Version: 6.00 Build 51448)  -->
<!DOCTYPE svg PUBLIC "-//W3C//DTD SVG 1.1//EN" "http://www.w3.org/Graphics/SVG/1.1/DTD/svg11.dtd" [
	<!ENTITY ns_svg "http://www.w3.org/2000/svg">
	<!ENTITY ns_xlink "http://www.w3.org/1999/xlink">
]>
<svg  version="1.1" id="レイヤー_1" xmlns="&ns_svg;" xmlns:xlink="&ns_xlink;" width="133.306" height="178.402"
	 viewBox="0 0 133.306 178.402" overflow="visible" enable-background="new 0 0 133.306 178.402" xml:space="preserve">
<g>
	<g>
		<g>
			<linearGradient id="XMLID_25_" gradientUnits="userSpaceOnUse" x1="114.9907" y1="86.6636" x2="114.9907" y2="255.8483">
				<stop  offset="0" style="stop-color:#008CFF"/>
				<stop  offset="1" style="stop-color:#FFFFFF"/>
			</linearGradient>
			<path fill="url(#XMLID_25_)" d="M123.731,19.127c-8.888-3.475-18.015-5.305-27.056-5.684l35.506,12.303l1.125-2.875
				L123.731,19.127z"/>
			<linearGradient id="XMLID_26_" gradientUnits="userSpaceOnUse" x1="104.2974" y1="86.6646" x2="104.2974" y2="255.8499">
				<stop  offset="0" style="stop-color:#008CFF"/>
				<stop  offset="1" style="stop-color:#FFFFFF"/>
			</linearGradient>
			<path fill="url(#XMLID_26_)" d="M77.804,14.783l51.664,17.901l1.322-3.38L85.74,13.695
				C83.072,13.933,80.424,14.295,77.804,14.783z"/>
			<linearGradient id="XMLID_27_" gradientUnits="userSpaceOnUse" x1="96.5444" y1="86.6636" x2="96.5444" y2="255.8493">
				<stop  offset="0" style="stop-color:#008CFF"/>
				<stop  offset="1" style="stop-color:#FFFFFF"/>
			</linearGradient>
			<path fill="url(#XMLID_27_)" d="M65.012,18.229l61.743,21.394l1.322-3.38l-57.3-19.854
				C68.831,16.927,66.913,17.555,65.012,18.229z"/>
			<linearGradient id="XMLID_28_" gradientUnits="userSpaceOnUse" x1="90.1089" y1="86.6646" x2="90.1089" y2="255.8485">
				<stop  offset="0" style="stop-color:#008CFF"/>
				<stop  offset="1" style="stop-color:#FFFFFF"/>
			</linearGradient>
			<path fill="url(#XMLID_28_)" d="M54.853,22.589l69.189,23.974l1.321-3.38L59.529,20.371
				C57.946,21.059,56.391,21.806,54.853,22.589z"/>
			<linearGradient id="XMLID_29_" gradientUnits="userSpaceOnUse" x1="72.7314" y1="86.6636" x2="72.7314" y2="255.8486">
				<stop  offset="0" style="stop-color:#008CFF"/>
				<stop  offset="1" style="stop-color:#FFFFFF"/>
			</linearGradient>
			<path fill="url(#XMLID_29_)" d="M46.397,27.538L87.818,41.89c3.709-0.357,7.475-0.346,11.248,0.059l-48.72-16.881
				C49.008,25.855,47.691,26.677,46.397,27.538z"/>
			<linearGradient id="XMLID_30_" gradientUnits="userSpaceOnUse" x1="59.5684" y1="86.6636" x2="59.5684" y2="255.8493">
				<stop  offset="0" style="stop-color:#008CFF"/>
				<stop  offset="1" style="stop-color:#FFFFFF"/>
			</linearGradient>
			<path fill="url(#XMLID_30_)" d="M39.165,32.911L74.052,45c1.938-0.703,3.912-1.3,5.92-1.787L42.548,30.245
				C41.4,31.105,40.27,31.991,39.165,32.911z"/>
			<linearGradient id="XMLID_31_" gradientUnits="userSpaceOnUse" x1="50.8628" y1="86.6626" x2="50.8628" y2="255.8476">
				<stop  offset="0" style="stop-color:#008CFF"/>
				<stop  offset="1" style="stop-color:#FFFFFF"/>
			</linearGradient>
			<path fill="url(#XMLID_31_)" d="M32.94,38.633L64.449,49.55c1.413-0.841,2.858-1.622,4.337-2.335l-32.931-11.41
				C34.862,36.722,33.891,37.665,32.94,38.633z"/>
			<linearGradient id="XMLID_32_" gradientUnits="userSpaceOnUse" x1="43.9961" y1="86.6636" x2="43.9961" y2="255.8491">
				<stop  offset="0" style="stop-color:#008CFF"/>
				<stop  offset="1" style="stop-color:#FFFFFF"/>
			</linearGradient>
			<path fill="url(#XMLID_32_)" d="M27.578,44.654l29.408,10.189c1.107-0.933,2.257-1.809,3.429-2.65L30.087,41.685
				C29.229,42.651,28.394,43.644,27.578,44.654z"/>
			<linearGradient id="XMLID_33_" gradientUnits="userSpaceOnUse" x1="38.3833" y1="86.6626" x2="38.3833" y2="255.8471">
				<stop  offset="0" style="stop-color:#008CFF"/>
				<stop  offset="1" style="stop-color:#FFFFFF"/>
			</linearGradient>
			<path fill="url(#XMLID_33_)" d="M22.977,50.939l28.069,9.726c0.88-1.001,1.8-1.958,2.743-2.888l-28.664-9.932
				C24.387,48.856,23.674,49.89,22.977,50.939z"/>
			<linearGradient id="XMLID_34_" gradientUnits="userSpaceOnUse" x1="33.7783" y1="86.6636" x2="33.7783" y2="255.8489">
				<stop  offset="0" style="stop-color:#008CFF"/>
				<stop  offset="1" style="stop-color:#FFFFFF"/>
			</linearGradient>
			<path fill="url(#XMLID_34_)" d="M19.068,57.463l27.237,9.438c0.693-1.059,1.427-2.081,2.184-3.082l-27.601-9.563
				C20.259,55.307,19.654,56.377,19.068,57.463z"/>
			<linearGradient id="XMLID_35_" gradientUnits="userSpaceOnUse" x1="30.0459" y1="86.6646" x2="30.0459" y2="255.8496">
				<stop  offset="0" style="stop-color:#008CFF"/>
				<stop  offset="1" style="stop-color:#FFFFFF"/>
			</linearGradient>
			<path fill="url(#XMLID_35_)" d="M15.799,64.209L42.615,73.5c0.527-1.11,1.086-2.196,1.678-3.256l-26.979-9.348
				C16.789,61.985,16.282,63.088,15.799,64.209z"/>
			<linearGradient id="XMLID_36_" gradientUnits="userSpaceOnUse" x1="27.1074" y1="86.6646" x2="27.1074" y2="255.8502">
				<stop  offset="0" style="stop-color:#008CFF"/>
				<stop  offset="1" style="stop-color:#FFFFFF"/>
			</linearGradient>
			<path fill="url(#XMLID_36_)" d="M13.138,71.167l26.724,9.26c0.351-1.09,0.726-2.177,1.148-3.258
				c0.021-0.054,0.046-0.105,0.067-0.16l-26.716-9.257C13.932,68.887,13.515,70.024,13.138,71.167z"/>
			<linearGradient id="XMLID_37_" gradientUnits="userSpaceOnUse" x1="24.9717" y1="86.6636" x2="24.9717" y2="255.8621">
				<stop  offset="0" style="stop-color:#008CFF"/>
				<stop  offset="1" style="stop-color:#FFFFFF"/>
			</linearGradient>
			<path fill="url(#XMLID_37_)" d="M11.124,78.347l26.925,9.33c0.214-1.193,0.477-2.383,0.772-3.571L12.021,74.82
				C11.691,75.994,11.4,77.17,11.124,78.347z"/>
			<linearGradient id="XMLID_38_" gradientUnits="userSpaceOnUse" x1="23.6221" y1="86.6636" x2="23.6221" y2="255.855">
				<stop  offset="0" style="stop-color:#008CFF"/>
				<stop  offset="1" style="stop-color:#FFFFFF"/>
			</linearGradient>
			<path fill="url(#XMLID_38_)" d="M9.743,85.748l27.486,9.524c0.049-1.247,0.138-2.495,0.272-3.744l-27.167-9.413
				C10.109,83.326,9.915,84.537,9.743,85.748z"/>
			<linearGradient id="XMLID_39_" gradientUnits="userSpaceOnUse" x1="23.2539" y1="86.6636" x2="23.2539" y2="255.8485">
				<stop  offset="0" style="stop-color:#008CFF"/>
				<stop  offset="1" style="stop-color:#FFFFFF"/>
			</linearGradient>
			<path fill="url(#XMLID_39_)" d="M9.021,93.376l28.467,9.863c-0.136-1.305-0.237-2.616-0.281-3.936L9.288,89.63
				C9.17,90.88,9.081,92.128,9.021,93.376z"/>
			<linearGradient id="XMLID_40_" gradientUnits="userSpaceOnUse" x1="23.9702" y1="86.6636" x2="23.9702" y2="255.8542">
				<stop  offset="0" style="stop-color:#008CFF"/>
				<stop  offset="1" style="stop-color:#FFFFFF"/>
			</linearGradient>
			<path fill="url(#XMLID_40_)" d="M9.007,101.251l30.012,10.398c-0.36-1.373-0.674-2.76-0.93-4.16L8.921,97.382
				C8.921,98.675,8.948,99.964,9.007,101.251z"/>
			<linearGradient id="XMLID_41_" gradientUnits="userSpaceOnUse" x1="25.7578" y1="86.6655" x2="25.7578" y2="255.8401">
				<stop  offset="0" style="stop-color:#008CFF"/>
				<stop  offset="1" style="stop-color:#FFFFFF"/>
			</linearGradient>
			<path fill="url(#XMLID_41_)" d="M9.78,109.398l32.436,11.238c-0.663-1.46-1.261-2.949-1.798-4.461L9.3,105.394
				C9.428,106.734,9.588,108.069,9.78,109.398z"/>
			<linearGradient id="XMLID_42_" gradientUnits="userSpaceOnUse" x1="29.2466" y1="86.6646" x2="29.2466" y2="255.8503">
				<stop  offset="0" style="stop-color:#008CFF"/>
				<stop  offset="1" style="stop-color:#FFFFFF"/>
			</linearGradient>
			<path fill="url(#XMLID_42_)" d="M11.446,117.854l36.533,12.658c-1.165-1.598-2.243-3.251-3.23-4.957l-34.235-11.862
				C10.79,115.089,11.101,116.476,11.446,117.854z"/>
			<linearGradient id="XMLID_43_" gradientUnits="userSpaceOnUse" x1="36.3047" y1="86.6616" x2="36.3047" y2="255.8503">
				<stop  offset="0" style="stop-color:#008CFF"/>
				<stop  offset="1" style="stop-color:#FFFFFF"/>
			</linearGradient>
			<path fill="url(#XMLID_43_)" d="M14.167,126.675l45.747,15.852c-2.596-1.914-4.993-4.035-7.185-6.328l-40.033-13.871
				C13.149,123.791,13.635,125.242,14.167,126.675z"/>
			<linearGradient id="XMLID_44_" gradientUnits="userSpaceOnUse" x1="49.002" y1="86.6636" x2="49.0019" y2="255.8484">
				<stop  offset="0" style="stop-color:#008CFF"/>
				<stop  offset="1" style="stop-color:#FFFFFF"/>
			</linearGradient>
			<path fill="url(#XMLID_44_)" d="M18.257,135.972l62.377,21.613l1.321-3.381l-65.907-22.836
				C16.733,132.927,17.48,134.457,18.257,135.972z"/>
			<linearGradient id="XMLID_45_" gradientUnits="userSpaceOnUse" x1="50.1431" y1="86.6646" x2="50.1431" y2="255.8489">
				<stop  offset="0" style="stop-color:#008CFF"/>
				<stop  offset="1" style="stop-color:#FFFFFF"/>
			</linearGradient>
			<path fill="url(#XMLID_45_)" d="M24.254,145.929l53.667,18.595l1.321-3.38l-58.199-20.166
				C22.057,142.663,23.124,144.316,24.254,145.929z"/>
			<linearGradient id="XMLID_46_" gradientUnits="userSpaceOnUse" x1="52.4897" y1="86.6636" x2="52.4897" y2="255.8494">
				<stop  offset="0" style="stop-color:#008CFF"/>
				<stop  offset="1" style="stop-color:#FFFFFF"/>
			</linearGradient>
			<path fill="url(#XMLID_46_)" d="M33.574,157.037l41.634,14.426l1.321-3.379l-48.079-16.66
				C30.065,153.367,31.778,155.237,33.574,157.037z"/>
			<linearGradient id="XMLID_47_" gradientUnits="userSpaceOnUse" x1="57.4023" y1="86.6636" x2="57.4023" y2="255.849">
				<stop  offset="0" style="stop-color:#008CFF"/>
				<stop  offset="1" style="stop-color:#FFFFFF"/>
			</linearGradient>
			<path fill="url(#XMLID_47_)" d="M53.598,171.854l18.896,6.548l1.322-3.381l-32.828-11.374
				C44.885,166.72,49.099,169.468,53.598,171.854z"/>
		</g>
		<linearGradient id="XMLID_48_" gradientUnits="userSpaceOnUse" x1="62.2041" y1="86.6714" x2="62.2041" y2="255.8564">
			<stop  offset="0" style="stop-color:#008CFF"/>
			<stop  offset="1" style="stop-color:#FFFFFF"/>
		</linearGradient>
		<path fill="url(#XMLID_48_)" d="M5.782,53.527L5.782,53.527c-16.902,43.229,4.517,92.149,47.746,109.052l9.575,3.744
			l10.295-26.332l-9.575-3.744c-28.71-11.225-42.935-43.715-31.709-72.425c11.225-28.71,43.715-42.935,72.425-31.71l9.575,3.744
			l10.295-26.331l-9.575-3.744C71.604-11.12,22.684,10.299,5.782,53.527z"/>
	</g>
</g>
</svg>
