<?xml version="1.0" encoding="UTF-8" standalone="no"?>
<!-- Generator: Adobe Illustrator 12.0.1, SVG Export Plug-In . SVG Version: 6.00 Build 51448)  -->

<svg
   xmlns:dc="http://purl.org/dc/elements/1.1/"
   xmlns:cc="http://creativecommons.org/ns#"
   xmlns:rdf="http://www.w3.org/1999/02/22-rdf-syntax-ns#"
   xmlns:svg="http://www.w3.org/2000/svg"
   xmlns="http://www.w3.org/2000/svg"
   xmlns:sodipodi="http://sodipodi.sourceforge.net/DTD/sodipodi-0.dtd"
   xmlns:inkscape="http://www.inkscape.org/namespaces/inkscape"
   version="1.1"
   id="レイヤー_1"
   width="133.306"
   height="179.668"
   viewBox="0 0 133.306 179.668"
   overflow="visible"
   enable-background="new 0 0 133.306 179.668"
   xml:space="preserve"
   inkscape:version="0.48.4 r9939"
   sodipodi:docname="icon-with-white-bg.svg"><metadata
     id="metadata4049"><rdf:RDF><cc:Work
         rdf:about=""><dc:format>image/svg+xml</dc:format><dc:type
           rdf:resource="http://purl.org/dc/dcmitype/StillImage" /><dc:title></dc:title></cc:Work></rdf:RDF></metadata><defs
     id="defs4047" /><sodipodi:namedview
     pagecolor="#ffffff"
     bordercolor="#666666"
     borderopacity="1"
     objecttolerance="10"
     gridtolerance="10"
     guidetolerance="10"
     inkscape:pageopacity="0"
     inkscape:pageshadow="2"
     inkscape:window-width="956"
     inkscape:window-height="480"
     id="namedview4045"
     showgrid="false"
     inkscape:zoom="1.3135339"
     inkscape:cx="66.653"
     inkscape:cy="89.834"
     inkscape:window-x="0"
     inkscape:window-y="0"
     inkscape:window-maximized="0"
     inkscape:current-layer="レイヤー_1" /><g
     id="g3823"><g
       id="g3825"><path
         fill="#FFFFFF"
         d="M28.45,151.423l48.079,16.66l1.393-3.56l-53.667-18.595C25.576,147.813,26.974,149.647,28.45,151.423z"
         id="path3827" /><path
         fill="#FFFFFF"
         d="M21.043,140.978l58.199,20.166l1.392-3.559l-62.377-21.613C19.129,137.671,20.058,139.339,21.043,140.978z    "
         id="path3829" /><path
         fill="#FFFFFF"
         d="M20.888,54.256l27.601,9.563c0.82-1.084,1.667-2.142,2.557-3.155l-28.069-9.726    C22.256,52.023,21.562,53.13,20.888,54.256z"
         id="path3831" /><path
         fill="#FFFFFF"
         d="M9.288,89.63l27.919,9.674c-0.044-1.339-0.031-2.685,0.022-4.032L9.743,85.748    C9.56,87.042,9.409,88.337,9.288,89.63z"
         id="path3833" /><path
         fill="#FFFFFF"
         d="M16.048,131.369l65.907,22.836l0.339-0.867l-9.574-3.744c-4.67-1.826-8.95-4.223-12.807-7.066    l-45.747-15.852C14.751,128.257,15.37,129.826,16.048,131.369z"
         id="path3835" /><path
         fill="#FFFFFF"
         d="M12.696,122.328l40.033,13.871c-1.715-1.795-3.299-3.695-4.75-5.687l-36.533-12.658    C11.823,119.357,12.238,120.849,12.696,122.328z"
         id="path3837" /><path
         fill="#FFFFFF"
         d="M42.548,30.245l37.424,12.967c2.572-0.625,5.193-1.067,7.846-1.323L46.397,27.538    C45.091,28.405,43.806,29.304,42.548,30.245z"
         id="path3839" /><path
         fill="#FFFFFF"
         d="M9.3,105.394l31.117,10.781c-0.528-1.487-0.997-2.996-1.398-4.525L9.007,101.251    C9.071,102.636,9.168,104.017,9.3,105.394z"
         id="path3841" /><path
         fill="#FFFFFF"
         d="M10.514,113.693l34.235,11.862c-0.925-1.599-1.771-3.239-2.534-4.919L9.78,109.398    C9.987,110.837,10.233,112.269,10.514,113.693z"
         id="path3843" /><path
         fill="#FFFFFF"
         d="M8.921,97.382l29.167,10.107c-0.257-1.405-0.453-2.823-0.602-4.25L9.021,93.376    C8.956,94.714,8.922,96.05,8.921,97.382z"
         id="path3845" /><path
         fill="#FFFFFF"
         d="M14.679,66.873c-0.114,0.292-0.208,0.586-0.318,0.879l26.716,9.257c0.473-1.198,0.993-2.362,1.538-3.508    l-26.815-9.291C15.419,65.092,15.032,65.971,14.679,66.873z"
         id="path3847" /><path
         fill="#FFFFFF"
         d="M25.126,47.845l28.664,9.932c1.033-1.018,2.093-2.004,3.196-2.934L27.578,44.654    C26.737,45.694,25.92,46.759,25.126,47.845z"
         id="path3849" /><path
         fill="#FFFFFF"
         d="M17.314,60.896l26.979,9.348c0.638-1.142,1.304-2.261,2.012-3.343l-27.237-9.438    C18.459,58.589,17.875,59.733,17.314,60.896z"
         id="path3851" /><path
         fill="#FFFFFF"
         d="M12.021,74.82l26.799,9.286c0.305-1.23,0.648-2.458,1.042-3.68l-26.724-9.26    C12.736,72.381,12.364,73.599,12.021,74.82z"
         id="path3853" /><path
         fill="#FFFFFF"
         d="M30.087,41.685l30.327,10.508c1.309-0.94,2.654-1.821,4.035-2.643L32.94,38.633    C31.966,39.625,31.014,40.641,30.087,41.685z"
         id="path3855" /><path
         fill="#FFFFFF"
         d="M10.335,82.115l27.167,9.413c0.138-1.284,0.317-2.567,0.547-3.851l-26.925-9.33    C10.83,79.602,10.57,80.858,10.335,82.115z"
         id="path3857" /><path
         fill="#FFFFFF"
         d="M35.854,35.805l32.931,11.41c1.716-0.828,3.475-1.565,5.267-2.215L39.165,32.911    C38.039,33.847,36.933,34.808,35.854,35.805z"
         id="path3859" /><path
         fill="#FFFFFF"
         d="M62.424,175.924L72,179.667l0.495-1.266l-18.896-6.548C56.432,173.357,59.367,174.729,62.424,175.924z"
         id="path3861" /><path
         fill="#FFFFFF"
         d="M40.989,163.647l32.828,11.374l1.391-3.559l-41.634-14.426C35.901,159.372,38.372,161.583,40.989,163.647z    "
         id="path3863" /><path
         fill="#FFFFFF"
         d="M85.74,13.695l45.051,15.609l1.391-3.558L96.675,13.443C93.008,13.29,89.357,13.372,85.74,13.695z"
         id="path3865" /><path
         fill="#FFFFFF"
         d="M59.529,20.371l65.835,22.812l1.392-3.559L65.012,18.229C63.162,18.886,61.329,19.588,59.529,20.371z"
         id="path3867" /><path
         fill="#FFFFFF"
         d="M70.777,16.389l57.3,19.854l1.391-3.559L77.804,14.783C75.438,15.224,73.091,15.75,70.777,16.389z"
         id="path3869" /><path
         fill="#FFFFFF"
         d="M50.346,25.068l48.72,16.881c4.818,0.518,9.645,1.663,14.369,3.51l9.575,3.744l1.032-2.64L54.853,22.589    C53.326,23.367,51.825,24.198,50.346,25.068z"
         id="path3871" /></g><g
       id="g3873"><g
         id="g3875"><linearGradient
           id="XMLID_25_"
           gradientUnits="userSpaceOnUse"
           x1="114.9907"
           y1="86.6636"
           x2="114.9907"
           y2="255.8483"><stop
             offset="0"
             style="stop-color:#008CFF"
             id="stop3878" /><stop
             offset="1"
             style="stop-color:#FFFFFF"
             id="stop3880" /></linearGradient><path
           fill="url(#XMLID_25_)"
           d="M123.731,19.127c-8.888-3.475-18.015-5.305-27.056-5.684l35.506,12.303l1.125-2.875     L123.731,19.127z"
           id="path3882" /><linearGradient
           id="XMLID_26_"
           gradientUnits="userSpaceOnUse"
           x1="104.2974"
           y1="86.6646"
           x2="104.2974"
           y2="255.8499"><stop
             offset="0"
             style="stop-color:#008CFF"
             id="stop3885" /><stop
             offset="1"
             style="stop-color:#FFFFFF"
             id="stop3887" /></linearGradient><path
           fill="url(#XMLID_26_)"
           d="M77.804,14.783l51.664,17.901l1.322-3.38L85.74,13.695     C83.072,13.933,80.424,14.295,77.804,14.783z"
           id="path3889" /><linearGradient
           id="XMLID_27_"
           gradientUnits="userSpaceOnUse"
           x1="96.5444"
           y1="86.6636"
           x2="96.5444"
           y2="255.8493"><stop
             offset="0"
             style="stop-color:#008CFF"
             id="stop3892" /><stop
             offset="1"
             style="stop-color:#FFFFFF"
             id="stop3894" /></linearGradient><path
           fill="url(#XMLID_27_)"
           d="M65.012,18.229l61.743,21.394l1.322-3.38l-57.3-19.854     C68.831,16.927,66.913,17.555,65.012,18.229z"
           id="path3896" /><linearGradient
           id="XMLID_28_"
           gradientUnits="userSpaceOnUse"
           x1="90.1089"
           y1="86.6646"
           x2="90.1089"
           y2="255.8485"><stop
             offset="0"
             style="stop-color:#008CFF"
             id="stop3899" /><stop
             offset="1"
             style="stop-color:#FFFFFF"
             id="stop3901" /></linearGradient><path
           fill="url(#XMLID_28_)"
           d="M54.853,22.589l69.189,23.974l1.321-3.38L59.529,20.371     C57.946,21.059,56.391,21.806,54.853,22.589z"
           id="path3903" /><linearGradient
           id="XMLID_29_"
           gradientUnits="userSpaceOnUse"
           x1="72.7314"
           y1="86.6636"
           x2="72.7314"
           y2="255.8486"><stop
             offset="0"
             style="stop-color:#008CFF"
             id="stop3906" /><stop
             offset="1"
             style="stop-color:#FFFFFF"
             id="stop3908" /></linearGradient><path
           fill="url(#XMLID_29_)"
           d="M46.397,27.538L87.818,41.89c3.709-0.357,7.475-0.346,11.248,0.059l-48.72-16.881     C49.008,25.855,47.691,26.677,46.397,27.538z"
           id="path3910" /><linearGradient
           id="XMLID_30_"
           gradientUnits="userSpaceOnUse"
           x1="59.5684"
           y1="86.6636"
           x2="59.5684"
           y2="255.8493"><stop
             offset="0"
             style="stop-color:#008CFF"
             id="stop3913" /><stop
             offset="1"
             style="stop-color:#FFFFFF"
             id="stop3915" /></linearGradient><path
           fill="url(#XMLID_30_)"
           d="M39.165,32.911L74.052,45c1.938-0.703,3.912-1.3,5.92-1.787L42.548,30.245     C41.4,31.105,40.27,31.991,39.165,32.911z"
           id="path3917" /><linearGradient
           id="XMLID_31_"
           gradientUnits="userSpaceOnUse"
           x1="50.8628"
           y1="86.6626"
           x2="50.8628"
           y2="255.8476"><stop
             offset="0"
             style="stop-color:#008CFF"
             id="stop3920" /><stop
             offset="1"
             style="stop-color:#FFFFFF"
             id="stop3922" /></linearGradient><path
           fill="url(#XMLID_31_)"
           d="M32.94,38.633L64.449,49.55c1.413-0.841,2.858-1.622,4.337-2.335l-32.931-11.41     C34.862,36.722,33.891,37.665,32.94,38.633z"
           id="path3924" /><linearGradient
           id="XMLID_32_"
           gradientUnits="userSpaceOnUse"
           x1="43.9961"
           y1="86.6636"
           x2="43.9961"
           y2="255.8491"><stop
             offset="0"
             style="stop-color:#008CFF"
             id="stop3927" /><stop
             offset="1"
             style="stop-color:#FFFFFF"
             id="stop3929" /></linearGradient><path
           fill="url(#XMLID_32_)"
           d="M27.578,44.654l29.408,10.189c1.107-0.933,2.257-1.809,3.429-2.65L30.087,41.685     C29.229,42.651,28.394,43.644,27.578,44.654z"
           id="path3931" /><linearGradient
           id="XMLID_33_"
           gradientUnits="userSpaceOnUse"
           x1="38.3833"
           y1="86.6626"
           x2="38.3833"
           y2="255.8471"><stop
             offset="0"
             style="stop-color:#008CFF"
             id="stop3934" /><stop
             offset="1"
             style="stop-color:#FFFFFF"
             id="stop3936" /></linearGradient><path
           fill="url(#XMLID_33_)"
           d="M22.977,50.939l28.069,9.726c0.88-1.001,1.8-1.958,2.743-2.888l-28.664-9.932     C24.387,48.856,23.674,49.89,22.977,50.939z"
           id="path3938" /><linearGradient
           id="XMLID_34_"
           gradientUnits="userSpaceOnUse"
           x1="33.7783"
           y1="86.6636"
           x2="33.7783"
           y2="255.8489"><stop
             offset="0"
             style="stop-color:#008CFF"
             id="stop3941" /><stop
             offset="1"
             style="stop-color:#FFFFFF"
             id="stop3943" /></linearGradient><path
           fill="url(#XMLID_34_)"
           d="M19.068,57.463l27.237,9.438c0.693-1.059,1.427-2.081,2.184-3.082l-27.601-9.563     C20.259,55.307,19.654,56.377,19.068,57.463z"
           id="path3945" /><linearGradient
           id="XMLID_35_"
           gradientUnits="userSpaceOnUse"
           x1="30.0459"
           y1="86.6646"
           x2="30.0459"
           y2="255.8496"><stop
             offset="0"
             style="stop-color:#008CFF"
             id="stop3948" /><stop
             offset="1"
             style="stop-color:#FFFFFF"
             id="stop3950" /></linearGradient><path
           fill="url(#XMLID_35_)"
           d="M15.799,64.209L42.615,73.5c0.527-1.11,1.086-2.196,1.678-3.256l-26.979-9.348     C16.789,61.985,16.282,63.088,15.799,64.209z"
           id="path3952" /><linearGradient
           id="XMLID_36_"
           gradientUnits="userSpaceOnUse"
           x1="27.1074"
           y1="86.6646"
           x2="27.1074"
           y2="255.8502"><stop
             offset="0"
             style="stop-color:#008CFF"
             id="stop3955" /><stop
             offset="1"
             style="stop-color:#FFFFFF"
             id="stop3957" /></linearGradient><path
           fill="url(#XMLID_36_)"
           d="M13.138,71.167l26.724,9.26c0.351-1.09,0.726-2.177,1.148-3.258     c0.021-0.054,0.046-0.105,0.067-0.16l-26.716-9.257C13.932,68.887,13.515,70.024,13.138,71.167z"
           id="path3959" /><linearGradient
           id="XMLID_37_"
           gradientUnits="userSpaceOnUse"
           x1="24.9717"
           y1="86.6636"
           x2="24.9717"
           y2="255.8621"><stop
             offset="0"
             style="stop-color:#008CFF"
             id="stop3962" /><stop
             offset="1"
             style="stop-color:#FFFFFF"
             id="stop3964" /></linearGradient><path
           fill="url(#XMLID_37_)"
           d="M11.124,78.347l26.925,9.33c0.214-1.193,0.477-2.383,0.772-3.571L12.021,74.82     C11.691,75.994,11.4,77.17,11.124,78.347z"
           id="path3966" /><linearGradient
           id="XMLID_38_"
           gradientUnits="userSpaceOnUse"
           x1="23.6221"
           y1="86.6636"
           x2="23.6221"
           y2="255.855"><stop
             offset="0"
             style="stop-color:#008CFF"
             id="stop3969" /><stop
             offset="1"
             style="stop-color:#FFFFFF"
             id="stop3971" /></linearGradient><path
           fill="url(#XMLID_38_)"
           d="M9.743,85.748l27.486,9.524c0.049-1.247,0.138-2.495,0.272-3.744l-27.167-9.413     C10.109,83.326,9.915,84.537,9.743,85.748z"
           id="path3973" /><linearGradient
           id="XMLID_39_"
           gradientUnits="userSpaceOnUse"
           x1="23.2539"
           y1="86.6636"
           x2="23.2539"
           y2="255.8485"><stop
             offset="0"
             style="stop-color:#008CFF"
             id="stop3976" /><stop
             offset="1"
             style="stop-color:#FFFFFF"
             id="stop3978" /></linearGradient><path
           fill="url(#XMLID_39_)"
           d="M9.021,93.376l28.467,9.863c-0.136-1.305-0.237-2.616-0.281-3.936L9.288,89.63     C9.17,90.88,9.081,92.128,9.021,93.376z"
           id="path3980" /><linearGradient
           id="XMLID_40_"
           gradientUnits="userSpaceOnUse"
           x1="23.9702"
           y1="86.6636"
           x2="23.9702"
           y2="255.8542"><stop
             offset="0"
             style="stop-color:#008CFF"
             id="stop3983" /><stop
             offset="1"
             style="stop-color:#FFFFFF"
             id="stop3985" /></linearGradient><path
           fill="url(#XMLID_40_)"
           d="M9.007,101.251l30.012,10.398c-0.36-1.373-0.674-2.76-0.93-4.16L8.921,97.382     C8.921,98.675,8.948,99.964,9.007,101.251z"
           id="path3987" /><linearGradient
           id="XMLID_41_"
           gradientUnits="userSpaceOnUse"
           x1="25.7578"
           y1="86.6655"
           x2="25.7578"
           y2="255.8401"><stop
             offset="0"
             style="stop-color:#008CFF"
             id="stop3990" /><stop
             offset="1"
             style="stop-color:#FFFFFF"
             id="stop3992" /></linearGradient><path
           fill="url(#XMLID_41_)"
           d="M9.78,109.398l32.436,11.238c-0.663-1.46-1.261-2.949-1.798-4.461L9.3,105.394     C9.428,106.734,9.588,108.069,9.78,109.398z"
           id="path3994" /><linearGradient
           id="XMLID_42_"
           gradientUnits="userSpaceOnUse"
           x1="29.2466"
           y1="86.6646"
           x2="29.2466"
           y2="255.8503"><stop
             offset="0"
             style="stop-color:#008CFF"
             id="stop3997" /><stop
             offset="1"
             style="stop-color:#FFFFFF"
             id="stop3999" /></linearGradient><path
           fill="url(#XMLID_42_)"
           d="M11.446,117.854l36.533,12.658c-1.165-1.598-2.243-3.251-3.23-4.957l-34.235-11.862     C10.79,115.089,11.101,116.476,11.446,117.854z"
           id="path4001" /><linearGradient
           id="XMLID_43_"
           gradientUnits="userSpaceOnUse"
           x1="36.3047"
           y1="86.6616"
           x2="36.3047"
           y2="255.8503"><stop
             offset="0"
             style="stop-color:#008CFF"
             id="stop4004" /><stop
             offset="1"
             style="stop-color:#FFFFFF"
             id="stop4006" /></linearGradient><path
           fill="url(#XMLID_43_)"
           d="M14.167,126.675l45.747,15.852c-2.596-1.914-4.993-4.035-7.185-6.328l-40.033-13.871     C13.149,123.791,13.635,125.242,14.167,126.675z"
           id="path4008" /><linearGradient
           id="XMLID_44_"
           gradientUnits="userSpaceOnUse"
           x1="49.002"
           y1="86.6636"
           x2="49.0019"
           y2="255.8484"><stop
             offset="0"
             style="stop-color:#008CFF"
             id="stop4011" /><stop
             offset="1"
             style="stop-color:#FFFFFF"
             id="stop4013" /></linearGradient><path
           fill="url(#XMLID_44_)"
           d="M18.257,135.972l62.377,21.613l1.321-3.381l-65.907-22.836     C16.733,132.927,17.48,134.457,18.257,135.972z"
           id="path4015" /><linearGradient
           id="XMLID_45_"
           gradientUnits="userSpaceOnUse"
           x1="50.1431"
           y1="86.6646"
           x2="50.1431"
           y2="255.8489"><stop
             offset="0"
             style="stop-color:#008CFF"
             id="stop4018" /><stop
             offset="1"
             style="stop-color:#FFFFFF"
             id="stop4020" /></linearGradient><path
           fill="url(#XMLID_45_)"
           d="M24.254,145.929l53.667,18.595l1.321-3.38l-58.199-20.166     C22.057,142.663,23.124,144.316,24.254,145.929z"
           id="path4022" /><linearGradient
           id="XMLID_46_"
           gradientUnits="userSpaceOnUse"
           x1="52.4897"
           y1="86.6636"
           x2="52.4897"
           y2="255.8494"><stop
             offset="0"
             style="stop-color:#008CFF"
             id="stop4025" /><stop
             offset="1"
             style="stop-color:#FFFFFF"
             id="stop4027" /></linearGradient><path
           fill="url(#XMLID_46_)"
           d="M33.574,157.037l41.634,14.426l1.321-3.379l-48.079-16.66     C30.065,153.367,31.778,155.237,33.574,157.037z"
           id="path4029" /><linearGradient
           id="XMLID_47_"
           gradientUnits="userSpaceOnUse"
           x1="57.4023"
           y1="86.6636"
           x2="57.4023"
           y2="255.849"><stop
             offset="0"
             style="stop-color:#008CFF"
             id="stop4032" /><stop
             offset="1"
             style="stop-color:#FFFFFF"
             id="stop4034" /></linearGradient><path
           fill="url(#XMLID_47_)"
           d="M53.598,171.854l18.896,6.548l1.322-3.381l-32.828-11.374     C44.885,166.72,49.099,169.468,53.598,171.854z"
           id="path4036" /></g><linearGradient
         id="XMLID_48_"
         gradientUnits="userSpaceOnUse"
         x1="62.2041"
         y1="86.6714"
         x2="62.2041"
         y2="255.8564"><stop
           offset="0"
           style="stop-color:#008CFF"
           id="stop4039" /><stop
           offset="1"
           style="stop-color:#FFFFFF"
           id="stop4041" /></linearGradient><path
         fill="url(#XMLID_48_)"
         d="M5.782,53.527L5.782,53.527c-16.902,43.229,4.517,92.149,47.746,109.052l9.575,3.744    l10.295-26.332l-9.575-3.744c-28.71-11.225-42.935-43.715-31.709-72.425c11.225-28.71,43.715-42.935,72.425-31.71l9.575,3.744    l10.295-26.331l-9.575-3.744C71.604-11.12,22.684,10.299,5.782,53.527z"
         id="path4043" /></g></g></svg>