<svg xmlns="http://www.w3.org/2000/svg" xmlns:svg="http://www.w3.org/2000/svg" id="レイヤー_1" width="133.306" height="179.668" enable-background="new 0 0 133.306 179.668" overflow="visible" version="1.1" viewBox="0 0 133.306 179.668" xml:space="preserve"><metadata id="metadata4049"/><g id="g3823"><g id="g3825"><path id="path3827" fill="#FFF" d="M28.45,151.423l48.079,16.66l1.393-3.56l-53.667-18.595C25.576,147.813,26.974,149.647,28.45,151.423z"/><path id="path3829" fill="#FFF" d="M21.043,140.978l58.199,20.166l1.392-3.559l-62.377-21.613C19.129,137.671,20.058,139.339,21.043,140.978z"/><path id="path3831" fill="#FFF" d="M20.888,54.256l27.601,9.563c0.82-1.084,1.667-2.142,2.557-3.155l-28.069-9.726 C22.256,52.023,21.562,53.13,20.888,54.256z"/><path id="path3833" fill="#FFF" d="M9.288,89.63l27.919,9.674c-0.044-1.339-0.031-2.685,0.022-4.032L9.743,85.748 C9.56,87.042,9.409,88.337,9.288,89.63z"/><path id="path3835" fill="#FFF" d="M16.048,131.369l65.907,22.836l0.339-0.867l-9.574-3.744c-4.67-1.826-8.95-4.223-12.807-7.066 l-45.747-15.852C14.751,128.257,15.37,129.826,16.048,131.369z"/><path id="path3837" fill="#FFF" d="M12.696,122.328l40.033,13.871c-1.715-1.795-3.299-3.695-4.75-5.687l-36.533-12.658 C11.823,119.357,12.238,120.849,12.696,122.328z"/><path id="path3839" fill="#FFF" d="M42.548,30.245l37.424,12.967c2.572-0.625,5.193-1.067,7.846-1.323L46.397,27.538 C45.091,28.405,43.806,29.304,42.548,30.245z"/><path id="path3841" fill="#FFF" d="M9.3,105.394l31.117,10.781c-0.528-1.487-0.997-2.996-1.398-4.525L9.007,101.251 C9.071,102.636,9.168,104.017,9.3,105.394z"/><path id="path3843" fill="#FFF" d="M10.514,113.693l34.235,11.862c-0.925-1.599-1.771-3.239-2.534-4.919L9.78,109.398 C9.987,110.837,10.233,112.269,10.514,113.693z"/><path id="path3845" fill="#FFF" d="M8.921,97.382l29.167,10.107c-0.257-1.405-0.453-2.823-0.602-4.25L9.021,93.376 C8.956,94.714,8.922,96.05,8.921,97.382z"/><path id="path3847" fill="#FFF" d="M14.679,66.873c-0.114,0.292-0.208,0.586-0.318,0.879l26.716,9.257c0.473-1.198,0.993-2.362,1.538-3.508 l-26.815-9.291C15.419,65.092,15.032,65.971,14.679,66.873z"/><path id="path3849" fill="#FFF" d="M25.126,47.845l28.664,9.932c1.033-1.018,2.093-2.004,3.196-2.934L27.578,44.654 C26.737,45.694,25.92,46.759,25.126,47.845z"/><path id="path3851" fill="#FFF" d="M17.314,60.896l26.979,9.348c0.638-1.142,1.304-2.261,2.012-3.343l-27.237-9.438 C18.459,58.589,17.875,59.733,17.314,60.896z"/><path id="path3853" fill="#FFF" d="M12.021,74.82l26.799,9.286c0.305-1.23,0.648-2.458,1.042-3.68l-26.724-9.26 C12.736,72.381,12.364,73.599,12.021,74.82z"/><path id="path3855" fill="#FFF" d="M30.087,41.685l30.327,10.508c1.309-0.94,2.654-1.821,4.035-2.643L32.94,38.633 C31.966,39.625,31.014,40.641,30.087,41.685z"/><path id="path3857" fill="#FFF" d="M10.335,82.115l27.167,9.413c0.138-1.284,0.317-2.567,0.547-3.851l-26.925-9.33 C10.83,79.602,10.57,80.858,10.335,82.115z"/><path id="path3859" fill="#FFF" d="M35.854,35.805l32.931,11.41c1.716-0.828,3.475-1.565,5.267-2.215L39.165,32.911 C38.039,33.847,36.933,34.808,35.854,35.805z"/><path id="path3861" fill="#FFF" d="M62.424,175.924L72,179.667l0.495-1.266l-18.896-6.548C56.432,173.357,59.367,174.729,62.424,175.924z"/><path id="path3863" fill="#FFF" d="M40.989,163.647l32.828,11.374l1.391-3.559l-41.634-14.426C35.901,159.372,38.372,161.583,40.989,163.647z"/><path id="path3865" fill="#FFF" d="M85.74,13.695l45.051,15.609l1.391-3.558L96.675,13.443C93.008,13.29,89.357,13.372,85.74,13.695z"/><path id="path3867" fill="#FFF" d="M59.529,20.371l65.835,22.812l1.392-3.559L65.012,18.229C63.162,18.886,61.329,19.588,59.529,20.371z"/><path id="path3869" fill="#FFF" d="M70.777,16.389l57.3,19.854l1.391-3.559L77.804,14.783C75.438,15.224,73.091,15.75,70.777,16.389z"/><path id="path3871" fill="#FFF" d="M50.346,25.068l48.72,16.881c4.818,0.518,9.645,1.663,14.369,3.51l9.575,3.744l1.032-2.64L54.853,22.589 C53.326,23.367,51.825,24.198,50.346,25.068z"/></g><g id="g3873"><g id="g3875"><linearGradient id="XMLID_25_" x1="114.991" x2="114.991" y1="86.664" y2="255.848" gradientUnits="userSpaceOnUse"><stop style="stop-color:#008cff" id="stop3878" offset="0"/><stop style="stop-color:#fff" id="stop3880" offset="1"/></linearGradient><path id="path3882" fill="url(#XMLID_25_)" d="M123.731,19.127c-8.888-3.475-18.015-5.305-27.056-5.684l35.506,12.303l1.125-2.875 L123.731,19.127z"/><linearGradient id="XMLID_26_" x1="104.297" x2="104.297" y1="86.665" y2="255.85" gradientUnits="userSpaceOnUse"><stop style="stop-color:#008cff" id="stop3885" offset="0"/><stop style="stop-color:#fff" id="stop3887" offset="1"/></linearGradient><path id="path3889" fill="url(#XMLID_26_)" d="M77.804,14.783l51.664,17.901l1.322-3.38L85.74,13.695 C83.072,13.933,80.424,14.295,77.804,14.783z"/><linearGradient id="XMLID_27_" x1="96.544" x2="96.544" y1="86.664" y2="255.849" gradientUnits="userSpaceOnUse"><stop style="stop-color:#008cff" id="stop3892" offset="0"/><stop style="stop-color:#fff" id="stop3894" offset="1"/></linearGradient><path id="path3896" fill="url(#XMLID_27_)" d="M65.012,18.229l61.743,21.394l1.322-3.38l-57.3-19.854 C68.831,16.927,66.913,17.555,65.012,18.229z"/><linearGradient id="XMLID_28_" x1="90.109" x2="90.109" y1="86.665" y2="255.849" gradientUnits="userSpaceOnUse"><stop style="stop-color:#008cff" id="stop3899" offset="0"/><stop style="stop-color:#fff" id="stop3901" offset="1"/></linearGradient><path id="path3903" fill="url(#XMLID_28_)" d="M54.853,22.589l69.189,23.974l1.321-3.38L59.529,20.371 C57.946,21.059,56.391,21.806,54.853,22.589z"/><linearGradient id="XMLID_29_" x1="72.731" x2="72.731" y1="86.664" y2="255.849" gradientUnits="userSpaceOnUse"><stop style="stop-color:#008cff" id="stop3906" offset="0"/><stop style="stop-color:#fff" id="stop3908" offset="1"/></linearGradient><path id="path3910" fill="url(#XMLID_29_)" d="M46.397,27.538L87.818,41.89c3.709-0.357,7.475-0.346,11.248,0.059l-48.72-16.881 C49.008,25.855,47.691,26.677,46.397,27.538z"/><linearGradient id="XMLID_30_" x1="59.568" x2="59.568" y1="86.664" y2="255.849" gradientUnits="userSpaceOnUse"><stop style="stop-color:#008cff" id="stop3913" offset="0"/><stop style="stop-color:#fff" id="stop3915" offset="1"/></linearGradient><path id="path3917" fill="url(#XMLID_30_)" d="M39.165,32.911L74.052,45c1.938-0.703,3.912-1.3,5.92-1.787L42.548,30.245 C41.4,31.105,40.27,31.991,39.165,32.911z"/><linearGradient id="XMLID_31_" x1="50.863" x2="50.863" y1="86.663" y2="255.848" gradientUnits="userSpaceOnUse"><stop style="stop-color:#008cff" id="stop3920" offset="0"/><stop style="stop-color:#fff" id="stop3922" offset="1"/></linearGradient><path id="path3924" fill="url(#XMLID_31_)" d="M32.94,38.633L64.449,49.55c1.413-0.841,2.858-1.622,4.337-2.335l-32.931-11.41 C34.862,36.722,33.891,37.665,32.94,38.633z"/><linearGradient id="XMLID_32_" x1="43.996" x2="43.996" y1="86.664" y2="255.849" gradientUnits="userSpaceOnUse"><stop style="stop-color:#008cff" id="stop3927" offset="0"/><stop style="stop-color:#fff" id="stop3929" offset="1"/></linearGradient><path id="path3931" fill="url(#XMLID_32_)" d="M27.578,44.654l29.408,10.189c1.107-0.933,2.257-1.809,3.429-2.65L30.087,41.685 C29.229,42.651,28.394,43.644,27.578,44.654z"/><linearGradient id="XMLID_33_" x1="38.383" x2="38.383" y1="86.663" y2="255.847" gradientUnits="userSpaceOnUse"><stop style="stop-color:#008cff" id="stop3934" offset="0"/><stop style="stop-color:#fff" id="stop3936" offset="1"/></linearGradient><path id="path3938" fill="url(#XMLID_33_)" d="M22.977,50.939l28.069,9.726c0.88-1.001,1.8-1.958,2.743-2.888l-28.664-9.932 C24.387,48.856,23.674,49.89,22.977,50.939z"/><linearGradient id="XMLID_34_" x1="33.778" x2="33.778" y1="86.664" y2="255.849" gradientUnits="userSpaceOnUse"><stop style="stop-color:#008cff" id="stop3941" offset="0"/><stop style="stop-color:#fff" id="stop3943" offset="1"/></linearGradient><path id="path3945" fill="url(#XMLID_34_)" d="M19.068,57.463l27.237,9.438c0.693-1.059,1.427-2.081,2.184-3.082l-27.601-9.563 C20.259,55.307,19.654,56.377,19.068,57.463z"/><linearGradient id="XMLID_35_" x1="30.046" x2="30.046" y1="86.665" y2="255.85" gradientUnits="userSpaceOnUse"><stop style="stop-color:#008cff" id="stop3948" offset="0"/><stop style="stop-color:#fff" id="stop3950" offset="1"/></linearGradient><path id="path3952" fill="url(#XMLID_35_)" d="M15.799,64.209L42.615,73.5c0.527-1.11,1.086-2.196,1.678-3.256l-26.979-9.348 C16.789,61.985,16.282,63.088,15.799,64.209z"/><linearGradient id="XMLID_36_" x1="27.107" x2="27.107" y1="86.665" y2="255.85" gradientUnits="userSpaceOnUse"><stop style="stop-color:#008cff" id="stop3955" offset="0"/><stop style="stop-color:#fff" id="stop3957" offset="1"/></linearGradient><path id="path3959" fill="url(#XMLID_36_)" d="M13.138,71.167l26.724,9.26c0.351-1.09,0.726-2.177,1.148-3.258 c0.021-0.054,0.046-0.105,0.067-0.16l-26.716-9.257C13.932,68.887,13.515,70.024,13.138,71.167z"/><linearGradient id="XMLID_37_" x1="24.972" x2="24.972" y1="86.664" y2="255.862" gradientUnits="userSpaceOnUse"><stop style="stop-color:#008cff" id="stop3962" offset="0"/><stop style="stop-color:#fff" id="stop3964" offset="1"/></linearGradient><path id="path3966" fill="url(#XMLID_37_)" d="M11.124,78.347l26.925,9.33c0.214-1.193,0.477-2.383,0.772-3.571L12.021,74.82 C11.691,75.994,11.4,77.17,11.124,78.347z"/><linearGradient id="XMLID_38_" x1="23.622" x2="23.622" y1="86.664" y2="255.855" gradientUnits="userSpaceOnUse"><stop style="stop-color:#008cff" id="stop3969" offset="0"/><stop style="stop-color:#fff" id="stop3971" offset="1"/></linearGradient><path id="path3973" fill="url(#XMLID_38_)" d="M9.743,85.748l27.486,9.524c0.049-1.247,0.138-2.495,0.272-3.744l-27.167-9.413 C10.109,83.326,9.915,84.537,9.743,85.748z"/><linearGradient id="XMLID_39_" x1="23.254" x2="23.254" y1="86.664" y2="255.849" gradientUnits="userSpaceOnUse"><stop style="stop-color:#008cff" id="stop3976" offset="0"/><stop style="stop-color:#fff" id="stop3978" offset="1"/></linearGradient><path id="path3980" fill="url(#XMLID_39_)" d="M9.021,93.376l28.467,9.863c-0.136-1.305-0.237-2.616-0.281-3.936L9.288,89.63 C9.17,90.88,9.081,92.128,9.021,93.376z"/><linearGradient id="XMLID_40_" x1="23.97" x2="23.97" y1="86.664" y2="255.854" gradientUnits="userSpaceOnUse"><stop style="stop-color:#008cff" id="stop3983" offset="0"/><stop style="stop-color:#fff" id="stop3985" offset="1"/></linearGradient><path id="path3987" fill="url(#XMLID_40_)" d="M9.007,101.251l30.012,10.398c-0.36-1.373-0.674-2.76-0.93-4.16L8.921,97.382 C8.921,98.675,8.948,99.964,9.007,101.251z"/><linearGradient id="XMLID_41_" x1="25.758" x2="25.758" y1="86.665" y2="255.84" gradientUnits="userSpaceOnUse"><stop style="stop-color:#008cff" id="stop3990" offset="0"/><stop style="stop-color:#fff" id="stop3992" offset="1"/></linearGradient><path id="path3994" fill="url(#XMLID_41_)" d="M9.78,109.398l32.436,11.238c-0.663-1.46-1.261-2.949-1.798-4.461L9.3,105.394 C9.428,106.734,9.588,108.069,9.78,109.398z"/><linearGradient id="XMLID_42_" x1="29.247" x2="29.247" y1="86.665" y2="255.85" gradientUnits="userSpaceOnUse"><stop style="stop-color:#008cff" id="stop3997" offset="0"/><stop style="stop-color:#fff" id="stop3999" offset="1"/></linearGradient><path id="path4001" fill="url(#XMLID_42_)" d="M11.446,117.854l36.533,12.658c-1.165-1.598-2.243-3.251-3.23-4.957l-34.235-11.862 C10.79,115.089,11.101,116.476,11.446,117.854z"/><linearGradient id="XMLID_43_" x1="36.305" x2="36.305" y1="86.662" y2="255.85" gradientUnits="userSpaceOnUse"><stop style="stop-color:#008cff" id="stop4004" offset="0"/><stop style="stop-color:#fff" id="stop4006" offset="1"/></linearGradient><path id="path4008" fill="url(#XMLID_43_)" d="M14.167,126.675l45.747,15.852c-2.596-1.914-4.993-4.035-7.185-6.328l-40.033-13.871 C13.149,123.791,13.635,125.242,14.167,126.675z"/><linearGradient id="XMLID_44_" x1="49.002" x2="49.002" y1="86.664" y2="255.848" gradientUnits="userSpaceOnUse"><stop style="stop-color:#008cff" id="stop4011" offset="0"/><stop style="stop-color:#fff" id="stop4013" offset="1"/></linearGradient><path id="path4015" fill="url(#XMLID_44_)" d="M18.257,135.972l62.377,21.613l1.321-3.381l-65.907-22.836 C16.733,132.927,17.48,134.457,18.257,135.972z"/><linearGradient id="XMLID_45_" x1="50.143" x2="50.143" y1="86.665" y2="255.849" gradientUnits="userSpaceOnUse"><stop style="stop-color:#008cff" id="stop4018" offset="0"/><stop style="stop-color:#fff" id="stop4020" offset="1"/></linearGradient><path id="path4022" fill="url(#XMLID_45_)" d="M24.254,145.929l53.667,18.595l1.321-3.38l-58.199-20.166 C22.057,142.663,23.124,144.316,24.254,145.929z"/><linearGradient id="XMLID_46_" x1="52.49" x2="52.49" y1="86.664" y2="255.849" gradientUnits="userSpaceOnUse"><stop style="stop-color:#008cff" id="stop4025" offset="0"/><stop style="stop-color:#fff" id="stop4027" offset="1"/></linearGradient><path id="path4029" fill="url(#XMLID_46_)" d="M33.574,157.037l41.634,14.426l1.321-3.379l-48.079-16.66 C30.065,153.367,31.778,155.237,33.574,157.037z"/><linearGradient id="XMLID_47_" x1="57.402" x2="57.402" y1="86.664" y2="255.849" gradientUnits="userSpaceOnUse"><stop style="stop-color:#008cff" id="stop4032" offset="0"/><stop style="stop-color:#fff" id="stop4034" offset="1"/></linearGradient><path id="path4036" fill="url(#XMLID_47_)" d="M53.598,171.854l18.896,6.548l1.322-3.381l-32.828-11.374 C44.885,166.72,49.099,169.468,53.598,171.854z"/></g><linearGradient id="XMLID_48_" x1="62.204" x2="62.204" y1="86.671" y2="255.856" gradientUnits="userSpaceOnUse"><stop style="stop-color:#008cff" id="stop4039" offset="0"/><stop style="stop-color:#fff" id="stop4041" offset="1"/></linearGradient><path id="path4043" fill="url(#XMLID_48_)" d="M5.782,53.527L5.782,53.527c-16.902,43.229,4.517,92.149,47.746,109.052l9.575,3.744 l10.295-26.332l-9.575-3.744c-28.71-11.225-42.935-43.715-31.709-72.425c11.225-28.71,43.715-42.935,72.425-31.71l9.575,3.744 l10.295-26.331l-9.575-3.744C71.604-11.12,22.684,10.299,5.782,53.527z"/></g></g></svg>