<?xml version="1.0" encoding="utf-8"?>
<!-- Generator: Adobe Illustrator 12.0.1, SVG Export Plug-In . SVG Version: 6.00 Build 51448)  -->
<!DOCTYPE svg PUBLIC "-//W3C//DTD SVG 1.1//EN" "http://www.w3.org/Graphics/SVG/1.1/DTD/svg11.dtd" [
	<!ENTITY ns_svg "http://www.w3.org/2000/svg">
	<!ENTITY ns_xlink "http://www.w3.org/1999/xlink">
]>
<svg  version="1.1" id="レイヤー_2" xmlns="http://www.w3.org/2000/svg" xmlns:xlink="http://www.w3.org/1999/xlink" width="214.228" height="224.82"
	 viewBox="0 0 214.228 224.82" overflow="visible" enable-background="new 0 0 214.228 224.82" xml:space="preserve">
<g>
	<g>
		<path fill="#FFFFFF" d="M68.911,151.424l48.079,16.659l1.392-3.56l-53.667-18.595C66.037,147.813,67.434,149.646,68.911,151.424z"
			/>
		<path fill="#FFFFFF" d="M61.503,140.979l58.199,20.165l1.393-3.559l-62.377-21.612C59.589,137.671,60.519,139.34,61.503,140.979z"
			/>
		<path fill="#FFFFFF" d="M61.349,54.256l27.601,9.563c0.82-1.084,1.667-2.142,2.558-3.155l-28.07-9.726
			C62.716,52.023,62.023,53.13,61.349,54.256z"/>
		<path fill="#FFFFFF" d="M49.748,89.631l27.92,9.674c-0.045-1.339-0.031-2.685,0.021-4.033l-27.485-9.524
			C50.021,87.043,49.869,88.337,49.748,89.631z"/>
		<path fill="#FFFFFF" d="M56.509,131.368l65.906,22.837l0.34-0.867l-9.574-3.744c-4.671-1.826-8.951-4.223-12.807-7.066
			l-45.748-15.852C55.212,128.257,55.831,129.825,56.509,131.368z"/>
		<path fill="#FFFFFF" d="M53.156,122.328l40.033,13.871c-1.715-1.795-3.299-3.695-4.75-5.688l-36.533-12.658
			C52.283,119.357,52.699,120.85,53.156,122.328z"/>
		<path fill="#FFFFFF" d="M83.009,30.245l37.423,12.967c2.572-0.625,5.193-1.067,7.847-1.323L86.857,27.538
			C85.552,28.405,84.267,29.304,83.009,30.245z"/>
		<path fill="#FFFFFF" d="M49.761,105.394l31.117,10.782c-0.528-1.488-0.997-2.996-1.398-4.525l-30.012-10.399
			C49.531,102.637,49.628,104.017,49.761,105.394z"/>
		<path fill="#FFFFFF" d="M50.974,113.693l34.235,11.861c-0.925-1.598-1.771-3.238-2.534-4.918L50.24,109.398
			C50.448,110.838,50.693,112.27,50.974,113.693z"/>
		<path fill="#FFFFFF" d="M49.382,97.383l29.167,10.106c-0.257-1.405-0.452-2.823-0.602-4.249l-28.467-9.864
			C49.416,94.714,49.382,96.05,49.382,97.383z"/>
		<path fill="#FFFFFF" d="M55.14,66.873c-0.115,0.292-0.208,0.586-0.318,0.879l26.715,9.257c0.473-1.198,0.994-2.362,1.539-3.508
			l-26.816-9.291C55.879,65.092,55.492,65.971,55.14,66.873z"/>
		<path fill="#FFFFFF" d="M65.586,47.845l28.663,9.932c1.033-1.018,2.094-2.004,3.196-2.934L68.039,44.654
			C67.197,45.694,66.38,46.759,65.586,47.845z"/>
		<path fill="#FFFFFF" d="M57.775,60.896l26.979,9.348c0.638-1.142,1.304-2.261,2.012-3.343l-27.236-9.438
			C58.919,58.589,58.335,59.733,57.775,60.896z"/>
		<path fill="#FFFFFF" d="M52.482,74.82l26.799,9.286c0.305-1.23,0.648-2.458,1.041-3.68l-26.724-9.26
			C53.197,72.381,52.825,73.599,52.482,74.82z"/>
		<path fill="#FFFFFF" d="M70.547,41.685l30.327,10.508c1.309-0.94,2.654-1.821,4.035-2.643L73.4,38.633
			C72.427,39.625,71.474,40.641,70.547,41.685z"/>
		<path fill="#FFFFFF" d="M50.795,82.115l27.167,9.413c0.138-1.284,0.316-2.568,0.547-3.851l-26.926-9.33
			C51.291,79.602,51.031,80.858,50.795,82.115z"/>
		<path fill="#FFFFFF" d="M76.315,35.805l32.931,11.41c1.717-0.828,3.475-1.565,5.268-2.215L79.625,32.911
			C78.5,33.847,77.394,34.808,76.315,35.805z"/>
		<path fill="#FFFFFF" d="M102.884,175.924l9.576,3.744l0.494-1.266l-18.896-6.549C96.892,173.356,99.828,174.729,102.884,175.924z"
			/>
		<path fill="#FFFFFF" d="M81.449,163.646l32.828,11.375l1.391-3.559l-41.633-14.426C76.362,159.371,78.832,161.582,81.449,163.646z
			"/>
		<path fill="#FFFFFF" d="M126.201,13.695l45.05,15.609l1.392-3.558l-35.506-12.303C133.468,13.29,129.818,13.372,126.201,13.695z"
			/>
		<path fill="#FFFFFF" d="M99.99,20.371l65.834,22.812l1.393-3.559l-61.744-21.394C103.623,18.886,101.789,19.588,99.99,20.371z"/>
		<path fill="#FFFFFF" d="M111.238,16.389l57.3,19.854l1.392-3.559l-51.664-17.901C115.898,15.224,113.551,15.75,111.238,16.389z"/>
		<path fill="#FFFFFF" d="M90.806,25.068l48.721,16.881c4.817,0.518,9.645,1.663,14.369,3.51l9.574,3.744l1.033-2.64L95.314,22.589
			C93.787,23.367,92.286,24.198,90.806,25.068z"/>
	</g>
	<g>
		<g>
			<linearGradient id="XMLID_44_" gradientUnits="userSpaceOnUse" x1="155.4507" y1="91.7759" x2="155.4507" y2="271.2924">
				<stop  offset="0" style="stop-color:#458CFF"/>
				<stop  offset="1" style="stop-color:#FFFFFF"/>
			</linearGradient>
			<path fill="url(#XMLID_44_)" d="M164.191,19.127c-8.887-3.475-18.014-5.305-27.055-5.684l35.506,12.303l1.124-2.875
				L164.191,19.127z"/>
			<linearGradient id="XMLID_45_" gradientUnits="userSpaceOnUse" x1="144.7573" y1="91.7769" x2="144.7573" y2="271.2926">
				<stop  offset="0" style="stop-color:#458CFF"/>
				<stop  offset="1" style="stop-color:#FFFFFF"/>
			</linearGradient>
			<path fill="url(#XMLID_45_)" d="M118.265,14.783l51.664,17.901l1.321-3.38l-45.05-15.609
				C123.533,13.933,120.884,14.295,118.265,14.783z"/>
			<linearGradient id="XMLID_46_" gradientUnits="userSpaceOnUse" x1="137.0054" y1="91.7754" x2="137.0054" y2="271.2911">
				<stop  offset="0" style="stop-color:#458CFF"/>
				<stop  offset="1" style="stop-color:#FFFFFF"/>
			</linearGradient>
			<path fill="url(#XMLID_46_)" d="M105.472,18.229l61.744,21.394l1.321-3.38l-57.3-19.854
				C109.291,16.927,107.374,17.555,105.472,18.229z"/>
			<linearGradient id="XMLID_47_" gradientUnits="userSpaceOnUse" x1="130.5688" y1="91.7773" x2="130.5688" y2="271.294">
				<stop  offset="0" style="stop-color:#458CFF"/>
				<stop  offset="1" style="stop-color:#FFFFFF"/>
			</linearGradient>
			<path fill="url(#XMLID_47_)" d="M95.314,22.589l69.189,23.974l1.32-3.38L99.99,20.371C98.407,21.059,96.851,21.806,95.314,22.589
				z"/>
			<linearGradient id="XMLID_48_" gradientUnits="userSpaceOnUse" x1="113.1919" y1="91.7759" x2="113.1919" y2="271.292">
				<stop  offset="0" style="stop-color:#458CFF"/>
				<stop  offset="1" style="stop-color:#FFFFFF"/>
			</linearGradient>
			<path fill="url(#XMLID_48_)" d="M86.857,27.538l41.422,14.352c3.708-0.357,7.474-0.346,11.248,0.059L90.806,25.068
				C89.468,25.855,88.152,26.677,86.857,27.538z"/>
			<linearGradient id="XMLID_49_" gradientUnits="userSpaceOnUse" x1="100.0283" y1="91.7769" x2="100.0283" y2="271.2936">
				<stop  offset="0" style="stop-color:#458CFF"/>
				<stop  offset="1" style="stop-color:#FFFFFF"/>
			</linearGradient>
			<path fill="url(#XMLID_49_)" d="M79.625,32.911L114.513,45c1.937-0.703,3.912-1.3,5.919-1.787L83.009,30.245
				C81.861,31.105,80.73,31.991,79.625,32.911z"/>
			<linearGradient id="XMLID_50_" gradientUnits="userSpaceOnUse" x1="91.3228" y1="91.7769" x2="91.3227" y2="271.2931">
				<stop  offset="0" style="stop-color:#458CFF"/>
				<stop  offset="1" style="stop-color:#FFFFFF"/>
			</linearGradient>
			<path fill="url(#XMLID_50_)" d="M73.4,38.633l31.51,10.917c1.412-0.841,2.857-1.622,4.336-2.335l-32.931-11.41
				C75.322,36.722,74.351,37.665,73.4,38.633z"/>
			<linearGradient id="XMLID_51_" gradientUnits="userSpaceOnUse" x1="84.4565" y1="91.7769" x2="84.4565" y2="271.2929">
				<stop  offset="0" style="stop-color:#458CFF"/>
				<stop  offset="1" style="stop-color:#FFFFFF"/>
			</linearGradient>
			<path fill="url(#XMLID_51_)" d="M68.039,44.654l29.407,10.189c1.107-0.933,2.257-1.809,3.429-2.65L70.547,41.685
				C69.689,42.651,68.855,43.644,68.039,44.654z"/>
			<linearGradient id="XMLID_52_" gradientUnits="userSpaceOnUse" x1="78.8433" y1="91.7759" x2="78.8433" y2="271.2927">
				<stop  offset="0" style="stop-color:#458CFF"/>
				<stop  offset="1" style="stop-color:#FFFFFF"/>
			</linearGradient>
			<path fill="url(#XMLID_52_)" d="M63.437,50.939l28.07,9.726c0.879-1.001,1.799-1.958,2.742-2.888l-28.663-9.932
				C64.847,48.856,64.134,49.89,63.437,50.939z"/>
			<linearGradient id="XMLID_53_" gradientUnits="userSpaceOnUse" x1="74.2393" y1="91.7764" x2="74.2393" y2="271.2926">
				<stop  offset="0" style="stop-color:#458CFF"/>
				<stop  offset="1" style="stop-color:#FFFFFF"/>
			</linearGradient>
			<path fill="url(#XMLID_53_)" d="M59.529,57.463l27.236,9.438c0.693-1.059,1.428-2.081,2.185-3.082l-27.601-9.563
				C60.72,55.307,60.115,56.377,59.529,57.463z"/>
			<linearGradient id="XMLID_54_" gradientUnits="userSpaceOnUse" x1="70.5063" y1="91.7759" x2="70.5063" y2="271.2928">
				<stop  offset="0" style="stop-color:#458CFF"/>
				<stop  offset="1" style="stop-color:#FFFFFF"/>
			</linearGradient>
			<path fill="url(#XMLID_54_)" d="M56.259,64.209L83.076,73.5c0.527-1.11,1.086-2.196,1.678-3.256l-26.979-9.348
				C57.25,61.985,56.742,63.088,56.259,64.209z"/>
			<linearGradient id="XMLID_55_" gradientUnits="userSpaceOnUse" x1="67.5674" y1="91.7759" x2="67.5674" y2="271.2924">
				<stop  offset="0" style="stop-color:#458CFF"/>
				<stop  offset="1" style="stop-color:#FFFFFF"/>
			</linearGradient>
			<path fill="url(#XMLID_55_)" d="M53.598,71.167l26.724,9.26c0.352-1.09,0.727-2.177,1.148-3.258
				c0.021-0.054,0.046-0.105,0.066-0.16l-26.715-9.257C54.392,68.887,53.976,70.024,53.598,71.167z"/>
			<linearGradient id="XMLID_56_" gradientUnits="userSpaceOnUse" x1="65.4321" y1="91.7769" x2="65.4321" y2="271.2931">
				<stop  offset="0" style="stop-color:#458CFF"/>
				<stop  offset="1" style="stop-color:#FFFFFF"/>
			</linearGradient>
			<path fill="url(#XMLID_56_)" d="M51.583,78.347l26.926,9.33c0.213-1.192,0.477-2.383,0.771-3.571L52.482,74.82
				C52.152,75.994,51.861,77.17,51.583,78.347z"/>
			<linearGradient id="XMLID_57_" gradientUnits="userSpaceOnUse" x1="64.083" y1="91.7764" x2="64.083" y2="271.2935">
				<stop  offset="0" style="stop-color:#458CFF"/>
				<stop  offset="1" style="stop-color:#FFFFFF"/>
			</linearGradient>
			<path fill="url(#XMLID_57_)" d="M50.204,85.748l27.485,9.524c0.049-1.247,0.139-2.495,0.273-3.744l-27.167-9.413
				C50.57,83.326,50.375,84.537,50.204,85.748z"/>
			<linearGradient id="XMLID_58_" gradientUnits="userSpaceOnUse" x1="63.7144" y1="91.7759" x2="63.7143" y2="271.2931">
				<stop  offset="0" style="stop-color:#458CFF"/>
				<stop  offset="1" style="stop-color:#FFFFFF"/>
			</linearGradient>
			<path fill="url(#XMLID_58_)" d="M49.481,93.376l28.467,9.864c-0.136-1.306-0.237-2.617-0.28-3.936l-27.92-9.674
				C49.63,90.881,49.542,92.129,49.481,93.376z"/>
			<linearGradient id="XMLID_59_" gradientUnits="userSpaceOnUse" x1="64.4312" y1="91.7769" x2="64.4311" y2="271.2934">
				<stop  offset="0" style="stop-color:#458CFF"/>
				<stop  offset="1" style="stop-color:#FFFFFF"/>
			</linearGradient>
			<path fill="url(#XMLID_59_)" d="M49.468,101.251L79.48,111.65c-0.361-1.374-0.674-2.761-0.931-4.161L49.382,97.383
				C49.381,98.675,49.409,99.965,49.468,101.251z"/>
			<linearGradient id="XMLID_60_" gradientUnits="userSpaceOnUse" x1="66.2183" y1="91.7764" x2="66.2183" y2="271.2932">
				<stop  offset="0" style="stop-color:#458CFF"/>
				<stop  offset="1" style="stop-color:#FFFFFF"/>
			</linearGradient>
			<path fill="url(#XMLID_60_)" d="M50.24,109.398l32.436,11.238c-0.662-1.461-1.261-2.949-1.797-4.461l-31.117-10.782
				C49.888,106.734,50.048,108.069,50.24,109.398z"/>
			<linearGradient id="XMLID_61_" gradientUnits="userSpaceOnUse" x1="69.7065" y1="91.7764" x2="69.7065" y2="271.2921">
				<stop  offset="0" style="stop-color:#458CFF"/>
				<stop  offset="1" style="stop-color:#FFFFFF"/>
			</linearGradient>
			<path fill="url(#XMLID_61_)" d="M51.906,117.854l36.533,12.658c-1.164-1.598-2.242-3.251-3.229-4.957l-34.235-11.861
				C51.25,115.089,51.561,116.476,51.906,117.854z"/>
			<linearGradient id="XMLID_62_" gradientUnits="userSpaceOnUse" x1="76.7651" y1="91.7773" x2="76.7651" y2="271.2939">
				<stop  offset="0" style="stop-color:#458CFF"/>
				<stop  offset="1" style="stop-color:#FFFFFF"/>
			</linearGradient>
			<path fill="url(#XMLID_62_)" d="M54.626,126.676l45.748,15.852c-2.596-1.914-4.994-4.035-7.186-6.328l-40.033-13.871
				C53.609,123.791,54.095,125.241,54.626,126.676z"/>
			<linearGradient id="XMLID_63_" gradientUnits="userSpaceOnUse" x1="89.4624" y1="91.7759" x2="89.4624" y2="271.2928">
				<stop  offset="0" style="stop-color:#458CFF"/>
				<stop  offset="1" style="stop-color:#FFFFFF"/>
			</linearGradient>
			<path fill="url(#XMLID_63_)" d="M58.718,135.973l62.377,21.612l1.32-3.38l-65.906-22.837
				C57.193,132.927,57.941,134.457,58.718,135.973z"/>
			<linearGradient id="XMLID_64_" gradientUnits="userSpaceOnUse" x1="90.603" y1="91.7773" x2="90.603" y2="271.2932">
				<stop  offset="0" style="stop-color:#458CFF"/>
				<stop  offset="1" style="stop-color:#FFFFFF"/>
			</linearGradient>
			<path fill="url(#XMLID_64_)" d="M64.714,145.929l53.667,18.595l1.321-3.38l-58.199-20.165
				C62.517,142.662,63.583,144.316,64.714,145.929z"/>
			<linearGradient id="XMLID_65_" gradientUnits="userSpaceOnUse" x1="92.9502" y1="91.7759" x2="92.9502" y2="271.2918">
				<stop  offset="0" style="stop-color:#458CFF"/>
				<stop  offset="1" style="stop-color:#FFFFFF"/>
			</linearGradient>
			<path fill="url(#XMLID_65_)" d="M74.035,157.037l41.633,14.426l1.322-3.38l-48.079-16.659
				C70.526,153.367,72.239,155.236,74.035,157.037z"/>
			<linearGradient id="XMLID_66_" gradientUnits="userSpaceOnUse" x1="97.8628" y1="91.7769" x2="97.8628" y2="271.2937">
				<stop  offset="0" style="stop-color:#458CFF"/>
				<stop  offset="1" style="stop-color:#FFFFFF"/>
			</linearGradient>
			<path fill="url(#XMLID_66_)" d="M94.058,171.854l18.896,6.549l1.322-3.381l-32.828-11.375
				C85.345,166.72,89.56,169.469,94.058,171.854z"/>
		</g>
		<linearGradient id="XMLID_67_" gradientUnits="userSpaceOnUse" x1="102.6646" y1="91.7773" x2="102.6645" y2="271.2905">
			<stop  offset="0" style="stop-color:#458CFF"/>
			<stop  offset="1" style="stop-color:#FFFFFF"/>
		</linearGradient>
		<path fill="url(#XMLID_67_)" d="M46.243,53.527L46.243,53.527C29.34,96.756,50.759,145.676,93.988,162.58l9.575,3.743
			l10.296-26.331l-9.576-3.744c-28.709-11.225-42.934-43.715-31.709-72.425c11.225-28.71,43.715-42.935,72.426-31.71l9.574,3.744
			l10.295-26.331l-9.574-3.744C112.065-11.12,63.144,10.299,46.243,53.527z"/>
	</g>
	<g>
		<linearGradient id="XMLID_68_" gradientUnits="userSpaceOnUse" x1="97.7358" y1="211.8848" x2="97.7358" y2="248.0458">
			<stop  offset="0" style="stop-color:#458CFF"/>
			<stop  offset="1" style="stop-color:#FFFFFF"/>
		</linearGradient>
		<path fill="url(#XMLID_68_)" d="M95.359,210.042c-0.092-1.743,0.359-3.46,1.355-5.151c0.994-1.69,3.081-2.597,6.256-2.718v-2.857
			c-2.255,0.032-3.967,0.486-5.131,1.365c-1.166,0.879-2.061,2.053-2.686,3.521v-4.273h-2.652v24.008h2.857V210.042z"/>
		<linearGradient id="XMLID_69_" gradientUnits="userSpaceOnUse" x1="77.4805" y1="211.8838" x2="77.4805" y2="248.0469">
			<stop  offset="0" style="stop-color:#458CFF"/>
			<stop  offset="1" style="stop-color:#FFFFFF"/>
		</linearGradient>
		<path fill="url(#XMLID_69_)" d="M83.048,208.126c-0.038,0.365-0.132,0.646-0.282,0.844c-0.626,0.456-1.797,0.757-3.515,0.9
			c-1.717,0.145-3.57,0.381-5.563,0.708c-1.99,0.327-3.704,1.012-5.139,2.053c-1.435,1.043-2.182,2.697-2.243,4.963
			c0.015,1.991,0.701,3.634,2.057,4.926c1.356,1.292,3.306,1.967,5.85,2.028c2.388-0.092,4.309-0.578,5.761-1.459
			c1.451-0.881,2.551-1.747,3.297-2.599c-0.092,1.195,0.154,2.097,0.74,2.709s1.479,0.926,2.682,0.94
			c0.562-0.03,1.002-0.076,1.322-0.137c0.318-0.06,0.532-0.09,0.639-0.09v-2.018c-0.122,0-0.267,0.012-0.434,0.033
			c-0.168,0.024-0.319,0.034-0.455,0.034c-0.722-0.015-1.207-0.133-1.454-0.356c-0.249-0.224-0.364-0.48-0.349-0.773v-14.966
			c0.015-1.758-0.691-3.275-2.117-4.549s-3.687-1.94-6.78-2.003c-3.315,0.093-5.736,0.923-7.265,2.493
			c-1.527,1.57-2.283,3.333-2.27,5.29h2.721c0.045-1.415,0.586-2.647,1.617-3.694c1.033-1.048,2.812-1.595,5.334-1.64
			c3.041,0.15,4.824,0.874,5.348,2.168c0.522,1.296,0.707,2.222,0.556,2.778C83.106,207.289,83.086,207.761,83.048,208.126z
			 M83.106,215.54c-0.091,2.027-0.976,3.623-2.652,4.788s-3.636,1.757-5.876,1.771c-1.828-0.046-3.188-0.499-4.078-1.361
			c-0.891-0.861-1.336-1.887-1.336-3.076c0.03-1.505,0.537-2.616,1.52-3.331c0.983-0.715,2.218-1.214,3.703-1.494
			c1.486-0.281,3.014-0.505,4.582-0.674c1.568-0.166,2.949-0.424,4.138-0.775V215.54z"/>
		<linearGradient id="XMLID_70_" gradientUnits="userSpaceOnUse" x1="13.9761" y1="211.8848" x2="13.9761" y2="248.048">
			<stop  offset="0" style="stop-color:#458CFF"/>
			<stop  offset="1" style="stop-color:#FFFFFF"/>
		</linearGradient>
		<path fill="url(#XMLID_70_)" d="M14.867,224.82c4.385-0.169,7.66-1.444,9.831-3.831c2.17-2.387,3.255-5.024,3.255-7.913H24.96
			c-0.031,2.543-0.929,4.687-2.695,6.431c-1.766,1.743-4.188,2.653-7.262,2.729c-4.477-0.198-7.594-1.827-9.352-4.886
			c-1.759-3.06-2.6-6.4-2.523-10.022c0.031-4.656,1.047-8.3,3.05-10.932c2.001-2.633,4.859-3.972,8.573-4.017
			c3.449,0.138,5.96,1.071,7.533,2.801c1.572,1.729,2.35,3.449,2.336,5.155h3.061c0.014-2.453-1.01-4.809-3.072-7.063
			c-2.064-2.257-5.296-3.461-9.696-3.613c-4.651,0.046-8.288,1.609-10.909,4.691c-2.623,3.082-3.957,7.362-4.002,12.84
			c-0.047,4.76,1.1,8.842,3.441,12.247C5.783,222.844,9.591,224.637,14.867,224.82z"/>
		<linearGradient id="XMLID_71_" gradientUnits="userSpaceOnUse" x1="34.9048" y1="211.8857" x2="34.9048" y2="248.0469">
			<stop  offset="0" style="stop-color:#458CFF"/>
			<stop  offset="1" style="stop-color:#FFFFFF"/>
		</linearGradient>
		<rect x="33.544" y="190.611" fill="url(#XMLID_71_)" width="2.721" height="33.325"/>
		<linearGradient id="XMLID_72_" gradientUnits="userSpaceOnUse" x1="52.0732" y1="211.8838" x2="52.0732" y2="248.0469">
			<stop  offset="0" style="stop-color:#458CFF"/>
			<stop  offset="1" style="stop-color:#FFFFFF"/>
		</linearGradient>
		<path fill="url(#XMLID_72_)" d="M52.208,224.548c3.307-0.153,5.795-1.087,7.463-2.805c1.668-1.717,2.502-3.428,2.502-5.13h-2.787
			c-0.018,1.331-0.64,2.581-1.87,3.752s-2.923,1.795-5.079,1.871c-2.778-0.093-4.813-1.09-6.103-2.996
			c-1.29-1.904-1.926-4.171-1.911-6.798h18.09c0-2.657-0.246-4.785-0.739-6.389c-0.493-1.601-1.239-2.872-2.241-3.814
			c-0.578-0.634-1.457-1.269-2.635-1.903c-1.18-0.634-2.713-0.974-4.598-1.021c-3.258,0.016-5.839,1.109-7.742,3.281
			c-1.904,2.172-2.879,5.322-2.924,9.453c-0.03,3.316,0.78,6.193,2.433,8.633C45.718,223.123,48.433,224.41,52.208,224.548z
			 M46.631,204.326c1.351-1.632,3.194-2.484,5.532-2.562c2.422,0.045,4.261,0.858,5.518,2.438c1.256,1.579,1.893,3.601,1.908,6.063
			H44.558C44.589,207.938,45.28,205.958,46.631,204.326z"/>
		<linearGradient id="XMLID_73_" gradientUnits="userSpaceOnUse" x1="203.7886" y1="211.8838" x2="203.7886" y2="248.0469">
			<stop  offset="0" style="stop-color:#458CFF"/>
			<stop  offset="1" style="stop-color:#FFFFFF"/>
		</linearGradient>
		<path fill="url(#XMLID_73_)" d="M213.488,206.054c-0.492-1.601-1.24-2.872-2.24-3.814c-0.579-0.634-1.457-1.269-2.637-1.903
			c-1.179-0.634-2.711-0.974-4.597-1.021c-3.258,0.016-5.839,1.109-7.742,3.281c-1.905,2.172-2.88,5.322-2.923,9.453
			c-0.031,3.316,0.779,6.193,2.432,8.633c1.652,2.44,4.365,3.728,8.143,3.865c3.305-0.153,5.793-1.087,7.462-2.805
			c1.668-1.717,2.503-3.428,2.503-5.13h-2.789c-0.016,1.331-0.639,2.581-1.869,3.752s-2.924,1.795-5.078,1.871
			c-2.779-0.093-4.813-1.09-6.104-2.996c-1.29-1.904-1.927-4.171-1.912-6.798h18.092
			C214.228,209.785,213.98,207.657,213.488,206.054z M196.273,210.266c0.029-2.327,0.721-4.308,2.072-5.939
			c1.35-1.632,3.194-2.484,5.531-2.562c2.423,0.045,4.262,0.858,5.519,2.438c1.255,1.579,1.893,3.601,1.908,6.063H196.273z"/>
		<linearGradient id="XMLID_74_" gradientUnits="userSpaceOnUse" x1="177.228" y1="211.8857" x2="177.228" y2="248.0485">
			<stop  offset="0" style="stop-color:#458CFF"/>
			<stop  offset="1" style="stop-color:#FFFFFF"/>
		</linearGradient>
		<path fill="url(#XMLID_74_)" d="M185.389,204.11c-0.546-1.166-1.49-2.241-2.835-3.226c-1.342-0.984-3.076-1.507-5.199-1.569
			c-3.752,0.077-6.53,1.296-8.33,3.657c-1.801,2.361-2.693,5.357-2.678,8.986c0.029,3.878,0.965,6.929,2.803,9.157
			c1.839,2.227,4.391,3.37,7.658,3.432c2.305-0.062,4.146-0.552,5.519-1.47c1.373-0.92,2.395-1.994,3.063-3.226v4.084h2.721v-33.325
			h-2.721V204.11z M183.335,219.707c-1.475,1.655-3.469,2.476-5.98,2.461c-3.006-0.122-5.129-1.22-6.365-3.294
			c-1.237-2.073-1.833-4.363-1.787-6.87c-0.03-2.904,0.604-5.319,1.9-7.242c1.297-1.922,3.449-2.92,6.458-2.997
			c2.587,0.03,4.566,0.939,5.944,2.725c1.377,1.786,2.073,4.307,2.088,7.561C185.562,215.499,184.81,218.051,183.335,219.707z"/>
		<linearGradient id="XMLID_75_" gradientUnits="userSpaceOnUse" x1="151.3687" y1="211.8838" x2="151.3687" y2="248.0469">
			<stop  offset="0" style="stop-color:#458CFF"/>
			<stop  offset="1" style="stop-color:#FFFFFF"/>
		</linearGradient>
		<path fill="url(#XMLID_75_)" d="M151.359,199.315c-4.066,0.122-6.94,1.421-8.622,3.896c-1.683,2.476-2.501,5.376-2.454,8.701
			c-0.062,3.315,0.746,6.215,2.42,8.701s4.561,3.796,8.656,3.934c4.246-0.168,7.176-1.527,8.788-4.081
			c1.612-2.556,2.382-5.406,2.306-8.554c0.045-3.462-0.791-6.4-2.512-8.814C158.223,200.684,155.361,199.423,151.359,199.315z
			 M157.667,219.217c-1.301,1.906-3.403,2.89-6.309,2.951c-2.878-0.062-4.971-1.049-6.279-2.963c-1.31-1.914-1.956-4.36-1.941-7.338
			c-0.015-2.92,0.654-5.319,2.01-7.196c1.355-1.876,3.471-2.846,6.348-2.906c2.921,0.092,5.009,1.109,6.264,3.055
			c1.255,1.944,1.867,4.324,1.837,7.14C159.612,214.892,158.969,217.311,157.667,219.217z"/>
		<g>
			<linearGradient id="XMLID_76_" gradientUnits="userSpaceOnUse" x1="121.7622" y1="211.8848" x2="121.7622" y2="248.0468">
				<stop  offset="0" style="stop-color:#458CFF"/>
				<stop  offset="1" style="stop-color:#FFFFFF"/>
			</linearGradient>
			<path fill="url(#XMLID_76_)" d="M121.914,189.703c-3.917,0.071-7.089,0.875-9.521,2.403h18.741
				C128.839,190.587,125.776,189.777,121.914,189.703z"/>
			<linearGradient id="XMLID_77_" gradientUnits="userSpaceOnUse" x1="121.6411" y1="211.8848" x2="121.6411" y2="248.0468">
				<stop  offset="0" style="stop-color:#458CFF"/>
				<stop  offset="1" style="stop-color:#FFFFFF"/>
			</linearGradient>
			<path fill="url(#XMLID_77_)" d="M121.914,195.756c1.273,0.032,2.39,0.223,3.354,0.562h9.638c-0.58-1.126-1.353-2.164-2.347-3.104
				c-0.187-0.177-0.394-0.335-0.595-0.499h-20.449c-0.795,0.605-1.5,1.298-2.109,2.084c-0.373,0.484-0.711,0.995-1.029,1.52h10.006
				C119.405,195.979,120.582,195.791,121.914,195.756z"/>
			<linearGradient id="XMLID_78_" gradientUnits="userSpaceOnUse" x1="111.7808" y1="211.8848" x2="111.7808" y2="248.0468">
				<stop  offset="0" style="stop-color:#458CFF"/>
				<stop  offset="1" style="stop-color:#FFFFFF"/>
			</linearGradient>
			<path fill="url(#XMLID_78_)" d="M114.56,199.248c0.605-0.987,1.434-1.754,2.461-2.323h-8.986
				c-0.614,1.116-1.119,2.312-1.494,3.604h7.35C114.092,200.085,114.31,199.655,114.56,199.248z"/>
			<linearGradient id="XMLID_79_" gradientUnits="userSpaceOnUse" x1="131.3257" y1="211.8848" x2="131.3257" y2="248.0468">
				<stop  offset="0" style="stop-color:#458CFF"/>
				<stop  offset="1" style="stop-color:#FFFFFF"/>
			</linearGradient>
			<path fill="url(#XMLID_79_)" d="M127.476,197.57c1.002,0.882,1.621,1.867,1.863,2.958h6.738
				c-0.101-1.286-0.389-2.489-0.874-3.604h-8.63C126.898,197.118,127.202,197.329,127.476,197.57z"/>
			<linearGradient id="XMLID_80_" gradientUnits="userSpaceOnUse" x1="109.7036" y1="211.8848" x2="109.7036" y2="248.0468">
				<stop  offset="0" style="stop-color:#458CFF"/>
				<stop  offset="1" style="stop-color:#FFFFFF"/>
			</linearGradient>
			<path fill="url(#XMLID_80_)" d="M113.626,201.136h-7.238c-0.291,1.136-0.493,2.338-0.607,3.604h6.963
				C112.904,203.436,113.197,202.231,113.626,201.136z"/>
			<linearGradient id="XMLID_81_" gradientUnits="userSpaceOnUse" x1="109.1646" y1="211.8848" x2="109.1646" y2="248.0468">
				<stop  offset="0" style="stop-color:#458CFF"/>
				<stop  offset="1" style="stop-color:#FFFFFF"/>
			</linearGradient>
			<path fill="url(#XMLID_81_)" d="M112.593,207.623c-0.014-0.791,0.016-1.548,0.08-2.276h-6.947
				c-0.047,0.71-0.076,1.436-0.069,2.184c-0.004,0.485,0.017,0.953,0.038,1.421h6.941
				C112.609,208.519,112.591,208.079,112.593,207.623z"/>
			<linearGradient id="XMLID_82_" gradientUnits="userSpaceOnUse" x1="109.6182" y1="211.8848" x2="109.6182" y2="248.0468">
				<stop  offset="0" style="stop-color:#458CFF"/>
				<stop  offset="1" style="stop-color:#FFFFFF"/>
			</linearGradient>
			<path fill="url(#XMLID_82_)" d="M112.689,209.559h-6.963c0.09,1.267,0.277,2.466,0.553,3.604h7.231
				C113.09,212.077,112.82,210.874,112.689,209.559z"/>
			<linearGradient id="XMLID_83_" gradientUnits="userSpaceOnUse" x1="111.5723" y1="211.8848" x2="111.5723" y2="248.0468">
				<stop  offset="0" style="stop-color:#458CFF"/>
				<stop  offset="1" style="stop-color:#FFFFFF"/>
			</linearGradient>
			<path fill="url(#XMLID_83_)" d="M114.809,215.575c-0.405-0.557-0.749-1.161-1.042-1.806h-7.328
				c0.357,1.284,0.83,2.489,1.434,3.604h8.833C115.972,216.896,115.337,216.302,114.809,215.575z"/>
			<linearGradient id="XMLID_84_" gradientUnits="userSpaceOnUse" x1="131.3247" y1="211.8848" x2="131.3247" y2="248.0468">
				<stop  offset="0" style="stop-color:#458CFF"/>
				<stop  offset="1" style="stop-color:#FFFFFF"/>
			</linearGradient>
			<path fill="url(#XMLID_84_)" d="M127.413,216.718c-0.272,0.242-0.565,0.456-0.87,0.656h8.581
				c0.511-1.103,0.839-2.304,0.983-3.604h-6.697C129.11,214.808,128.447,215.791,127.413,216.718z"/>
			<linearGradient id="XMLID_85_" gradientUnits="userSpaceOnUse" x1="121.5181" y1="211.8848" x2="121.5181" y2="248.0468">
				<stop  offset="0" style="stop-color:#458CFF"/>
				<stop  offset="1" style="stop-color:#FFFFFF"/>
			</linearGradient>
			<path fill="url(#XMLID_85_)" d="M132.041,221.303c1.176-0.969,2.086-2.082,2.764-3.322h-9.393
				c-1.066,0.461-2.29,0.719-3.682,0.763c-1.477-0.028-2.766-0.288-3.879-0.763h-9.62c0.372,0.619,0.771,1.22,1.222,1.782
				c0.544,0.678,1.161,1.282,1.844,1.821h20.369C131.791,221.489,131.921,221.403,132.041,221.303z"/>
			<linearGradient id="XMLID_86_" gradientUnits="userSpaceOnUse" x1="121.479" y1="211.8848" x2="121.479" y2="248.047">
				<stop  offset="0" style="stop-color:#458CFF"/>
				<stop  offset="1" style="stop-color:#FFFFFF"/>
			</linearGradient>
			<path fill="url(#XMLID_86_)" d="M130.822,222.191h-18.685c2.441,1.604,5.637,2.451,9.593,2.537
				C125.318,224.663,128.343,223.813,130.822,222.191z"/>
		</g>
	</g>
</g>
</svg>
