<svg xmlns="http://www.w3.org/2000/svg" xmlns:svg="http://www.w3.org/2000/svg" id="レイヤー_2" width="482.715" height="106.166" enable-background="new 0 0 482.715 106.166" overflow="visible" version="1.1" viewBox="0 0 482.715 106.166" xml:space="preserve"><metadata id="metadata4596"/><g id="g4233"><g id="g4235"><path id="path4237" fill="#FFF" d="M16.811,89.474l28.41,9.846l0.822-2.104L14.332,86.23C15.112,87.343,15.938,88.425,16.811,89.474z"/><path id="path4239" fill="#FFF" d="M12.434,83.304l34.39,11.914l0.822-2.102L10.788,80.345C11.303,81.349,11.853,82.335,12.434,83.304z"/><path id="path4241" fill="#FFF" d="M12.343,32.06l16.31,5.651c0.484-0.641,0.985-1.266,1.511-1.864L13.577,30.1 C13.151,30.741,12.741,31.396,12.343,32.06z"/><path id="path4243" fill="#FFF" d="M5.488,52.962l16.497,5.717c-0.026-0.791-0.018-1.586,0.014-2.383L5.757,50.668 C5.649,51.433,5.559,52.198,5.488,52.962z"/><path id="path4245" fill="#FFF" d="M9.483,77.626l38.944,13.493l0.2-0.512l-5.658-2.213c-2.76-1.078-5.288-2.494-7.567-4.176L8.371,74.852 C8.717,75.788,9.083,76.714,9.483,77.626z"/><path id="path4247" fill="#FFF" d="M7.501,72.283l23.655,8.197c-1.013-1.062-1.949-2.185-2.806-3.361l-21.587-7.48 C6.986,70.527,7.231,71.409,7.501,72.283z"/><path id="path4249" fill="#FFF" d="M25.141,17.872l22.114,7.662c1.52-0.37,3.069-0.63,4.637-0.78l-24.476-8.482 C26.644,16.785,25.885,17.315,25.141,17.872z"/><path id="path4251" fill="#FFF" d="M5.496,62.277l18.387,6.37c-0.312-0.879-0.589-1.77-0.827-2.674L5.322,59.829 C5.36,60.646,5.418,61.464,5.496,62.277z"/><path id="path4253" fill="#FFF" d="M6.213,67.182l20.229,7.009c-0.546-0.944-1.047-1.915-1.497-2.906L5.779,64.643 C5.901,65.494,6.046,66.339,6.213,67.182z"/><path id="path4255" fill="#FFF" d="M5.272,57.543l17.234,5.972c-0.151-0.829-0.267-1.668-0.355-2.511L5.33,55.175 C5.292,55.967,5.272,56.756,5.272,57.543z"/><path id="path4257" fill="#FFF" d="M8.674,39.516c-0.068,0.172-0.123,0.347-0.188,0.519l15.786,5.471c0.279-0.708,0.586-1.396,0.909-2.073 l-15.845-5.49C9.111,38.464,8.883,38.981,8.674,39.516z"/><path id="path4259" fill="#FFF" d="M14.847,28.272l16.938,5.868c0.611-0.602,1.236-1.185,1.888-1.733l-17.377-6.021 C15.798,27.002,15.316,27.63,14.847,28.272z"/><path id="path4261" fill="#FFF" d="M10.23,35.984l15.942,5.522c0.377-0.675,0.77-1.335,1.189-1.976l-16.095-5.577 C10.908,34.621,10.563,35.297,10.23,35.984z"/><path id="path4263" fill="#FFF" d="M7.103,44.211l15.836,5.487c0.18-0.728,0.383-1.452,0.615-2.175L7.763,42.052 C7.525,42.769,7.306,43.489,7.103,44.211z"/><path id="path4265" fill="#FFF" d="M17.778,24.632l17.92,6.209c0.773-0.555,1.568-1.076,2.384-1.563l-18.618-6.449 C18.889,23.414,18.326,24.015,17.778,24.632z"/><path id="path4267" fill="#FFF" d="M6.107,48.521l16.053,5.562c0.082-0.759,0.187-1.517,0.323-2.275l-15.91-5.512 C6.399,47.036,6.245,47.779,6.107,48.521z"/><path id="path4269" fill="#FFF" d="M21.186,21.156l19.459,6.742c1.014-0.489,2.053-0.924,3.112-1.308l-20.615-7.144 C22.478,20.001,21.824,20.568,21.186,21.156z"/><path id="path4271" fill="#FFF" d="M36.887,103.953l5.658,2.213l0.292-0.75l-11.166-3.867C33.345,102.435,35.08,103.246,36.887,103.953z"/><path id="path4273" fill="#FFF" d="M24.22,96.699l19.397,6.721l0.822-2.104l-24.601-8.523C21.214,94.171,22.673,95.478,24.22,96.699z"/><path id="path4275" fill="#FFF" d="M50.663,8.092l26.621,9.224l0.822-2.103l-20.98-7.27C54.958,7.853,52.8,7.902,50.663,8.092z"/><path id="path4277" fill="#FFF" d="M35.175,12.037l38.902,13.479l0.822-2.102L38.416,10.772C37.322,11.16,36.239,11.574,35.175,12.037z"/><path id="path4279" fill="#FFF" d="M41.822,9.685L75.68,21.416l0.822-2.103L45.975,8.735C44.576,8.996,43.189,9.306,41.822,9.685z"/><path id="path4281" fill="#FFF" d="M29.75,14.813l28.788,9.975c2.847,0.306,5.699,0.982,8.49,2.074l5.658,2.213l0.61-1.561L32.412,13.349 C31.51,13.808,30.624,14.299,29.75,14.813z"/></g><g id="g4283"><g id="g4285"><linearGradient id="XMLID_44_" x1="67.947" x2="67.947" y1="71.6" y2="132.299" gradientUnits="userSpaceOnUse"><stop style="stop-color:#458cff" id="stop4288" offset="0"/><stop style="stop-color:#fff" id="stop4290" offset="1"/></linearGradient><path id="path4292" fill="url(#XMLID_44_)" d="M73.112,11.303C67.86,9.249,62.468,8.168,57.125,7.943l20.98,7.27l0.665-1.698L73.112,11.303z"/><linearGradient id="XMLID_45_" x1="61.629" x2="61.629" y1="71.6" y2="132.299" gradientUnits="userSpaceOnUse"><stop style="stop-color:#458cff" id="stop4295" offset="0"/><stop style="stop-color:#fff" id="stop4297" offset="1"/></linearGradient><path id="path4299" fill="url(#XMLID_45_)" d="M45.975,8.735l30.527,10.578l0.781-1.998L50.663,8.092C49.087,8.232,47.523,8.447,45.975,8.735z"/><linearGradient id="XMLID_46_" x1="57.048" x2="57.048" y1="71.599" y2="132.298" gradientUnits="userSpaceOnUse"><stop style="stop-color:#458cff" id="stop4302" offset="0"/><stop style="stop-color:#fff" id="stop4304" offset="1"/></linearGradient><path id="path4306" fill="url(#XMLID_46_)" d="M38.416,10.772l36.483,12.642l0.781-1.998L41.822,9.685 C40.671,10.003,39.539,10.374,38.416,10.772z"/><linearGradient id="XMLID_47_" x1="53.245" x2="53.245" y1="71.601" y2="132.3" gradientUnits="userSpaceOnUse"><stop style="stop-color:#458cff" id="stop4309" offset="0"/><stop style="stop-color:#fff" id="stop4311" offset="1"/></linearGradient><path id="path4313" fill="url(#XMLID_47_)" d="M32.412,13.349l40.884,14.165l0.781-1.998L35.175,12.037 C34.241,12.444,33.321,12.885,32.412,13.349z"/><linearGradient id="XMLID_48_" x1="42.977" x2="42.977" y1="71.6" y2="132.299" gradientUnits="userSpaceOnUse"><stop style="stop-color:#458cff" id="stop4316" offset="0"/><stop style="stop-color:#fff" id="stop4318" offset="1"/></linearGradient><path id="path4320" fill="url(#XMLID_48_)" d="M27.416,16.271l24.476,8.482c2.19-0.213,4.417-0.206,6.646,0.033L29.75,14.813 C28.958,15.278,28.181,15.764,27.416,16.271z"/><linearGradient id="XMLID_49_" x1="35.199" x2="35.199" y1="71.6" y2="132.299" gradientUnits="userSpaceOnUse"><stop style="stop-color:#458cff" id="stop4323" offset="0"/><stop style="stop-color:#fff" id="stop4325" offset="1"/></linearGradient><path id="path4327" fill="url(#XMLID_49_)" d="M23.142,19.447l20.615,7.144c1.145-0.416,2.313-0.77,3.498-1.057l-22.114-7.662 C24.463,18.381,23.795,18.903,23.142,19.447z"/><linearGradient id="XMLID_50_" x1="30.055" x2="30.055" y1="71.6" y2="132.299" gradientUnits="userSpaceOnUse"><stop style="stop-color:#458cff" id="stop4330" offset="0"/><stop style="stop-color:#fff" id="stop4332" offset="1"/></linearGradient><path id="path4334" fill="url(#XMLID_50_)" d="M19.464,22.829l18.618,6.449c0.834-0.497,1.689-0.958,2.563-1.38l-19.459-6.742 C20.6,21.699,20.026,22.257,19.464,22.829z"/><linearGradient id="XMLID_51_" x1="25.997" x2="25.997" y1="71.6" y2="132.299" gradientUnits="userSpaceOnUse"><stop style="stop-color:#458cff" id="stop4337" offset="0"/><stop style="stop-color:#fff" id="stop4339" offset="1"/></linearGradient><path id="path4341" fill="url(#XMLID_51_)" d="M16.295,26.386l17.377,6.021c0.654-0.552,1.334-1.069,2.026-1.566l-17.92-6.209 C17.271,25.203,16.778,25.79,16.295,26.386z"/><linearGradient id="XMLID_52_" x1="22.681" x2="22.681" y1="71.6" y2="132.299" gradientUnits="userSpaceOnUse"><stop style="stop-color:#458cff" id="stop4344" offset="0"/><stop style="stop-color:#fff" id="stop4346" offset="1"/></linearGradient><path id="path4348" fill="url(#XMLID_52_)" d="M13.577,30.1l16.586,5.747c0.52-0.592,1.063-1.156,1.621-1.706l-16.938-5.868 C14.41,28.868,13.988,29.48,13.577,30.1z"/><linearGradient id="XMLID_53_" x1="19.959" x2="19.959" y1="71.6" y2="132.299" gradientUnits="userSpaceOnUse"><stop style="stop-color:#458cff" id="stop4351" offset="0"/><stop style="stop-color:#fff" id="stop4353" offset="1"/></linearGradient><path id="path4355" fill="url(#XMLID_53_)" d="M11.267,33.954l16.095,5.577c0.409-0.626,0.843-1.229,1.291-1.82l-16.31-5.651 C11.971,32.681,11.614,33.313,11.267,33.954z"/><linearGradient id="XMLID_54_" x1="17.754" x2="17.754" y1="71.6" y2="132.298" gradientUnits="userSpaceOnUse"><stop style="stop-color:#458cff" id="stop4358" offset="0"/><stop style="stop-color:#fff" id="stop4360" offset="1"/></linearGradient><path id="path4362" fill="url(#XMLID_54_)" d="M9.335,37.941l15.845,5.49c0.312-0.656,0.642-1.299,0.992-1.925L10.23,35.984 C9.92,36.628,9.621,37.278,9.335,37.941z"/><linearGradient id="XMLID_55_" x1="16.018" x2="16.018" y1="71.6" y2="132.299" gradientUnits="userSpaceOnUse"><stop style="stop-color:#458cff" id="stop4365" offset="0"/><stop style="stop-color:#fff" id="stop4367" offset="1"/></linearGradient><path id="path4369" fill="url(#XMLID_55_)" d="M7.763,42.052l15.791,5.472c0.208-0.643,0.429-1.285,0.678-1.924 c0.013-0.033,0.027-0.063,0.04-0.095L8.486,40.034C8.232,40.706,7.986,41.377,7.763,42.052z"/><linearGradient id="XMLID_56_" x1="14.756" x2="14.756" y1="71.6" y2="132.299" gradientUnits="userSpaceOnUse"><stop style="stop-color:#458cff" id="stop4372" offset="0"/><stop style="stop-color:#fff" id="stop4374" offset="1"/></linearGradient><path id="path4376" fill="url(#XMLID_56_)" d="M6.573,46.296l15.91,5.512c0.126-0.705,0.281-1.407,0.456-2.109L7.103,44.211 C6.909,44.904,6.736,45.6,6.573,46.296z"/><linearGradient id="XMLID_57_" x1="13.959" x2="13.959" y1="71.6" y2="132.299" gradientUnits="userSpaceOnUse"><stop style="stop-color:#458cff" id="stop4379" offset="0"/><stop style="stop-color:#fff" id="stop4381" offset="1"/></linearGradient><path id="path4383" fill="url(#XMLID_57_)" d="M5.757,50.668l16.241,5.628c0.029-0.736,0.081-1.474,0.161-2.213L6.107,48.521 C5.973,49.236,5.858,49.952,5.757,50.668z"/><linearGradient id="XMLID_58_" x1="13.741" x2="13.741" y1="71.6" y2="132.299" gradientUnits="userSpaceOnUse"><stop style="stop-color:#458cff" id="stop4386" offset="0"/><stop style="stop-color:#fff" id="stop4388" offset="1"/></linearGradient><path id="path4390" fill="url(#XMLID_58_)" d="M5.33,55.175l16.821,5.829c-0.081-0.771-0.14-1.546-0.167-2.325L5.488,52.962 C5.418,53.701,5.366,54.438,5.33,55.175z"/><linearGradient id="XMLID_59_" x1="14.164" x2="14.164" y1="71.6" y2="132.299" gradientUnits="userSpaceOnUse"><stop style="stop-color:#458cff" id="stop4393" offset="0"/><stop style="stop-color:#fff" id="stop4395" offset="1"/></linearGradient><path id="path4397" fill="url(#XMLID_59_)" d="M5.322,59.829l17.733,6.145c-0.212-0.812-0.398-1.631-0.549-2.459L5.272,57.543 C5.271,58.307,5.287,59.068,5.322,59.829z"/><linearGradient id="XMLID_60_" x1="15.22" x2="15.22" y1="71.6" y2="132.298" gradientUnits="userSpaceOnUse"><stop style="stop-color:#458cff" id="stop4400" offset="0"/><stop style="stop-color:#fff" id="stop4402" offset="1"/></linearGradient><path id="path4404" fill="url(#XMLID_60_)" d="M5.779,64.643l19.166,6.642c-0.392-0.863-0.745-1.744-1.062-2.637l-18.387-6.37 C5.571,63.068,5.666,63.857,5.779,64.643z"/><linearGradient id="XMLID_61_" x1="17.282" x2="17.282" y1="71.6" y2="132.299" gradientUnits="userSpaceOnUse"><stop style="stop-color:#458cff" id="stop4407" offset="0"/><stop style="stop-color:#fff" id="stop4409" offset="1"/></linearGradient><path id="path4411" fill="url(#XMLID_61_)" d="M6.763,69.639l21.587,7.48c-0.688-0.943-1.326-1.921-1.909-2.929L6.213,67.182 C6.376,68.007,6.559,68.825,6.763,69.639z"/><linearGradient id="XMLID_62_" x1="21.452" x2="21.452" y1="71.6" y2="132.299" gradientUnits="userSpaceOnUse"><stop style="stop-color:#458cff" id="stop4414" offset="0"/><stop style="stop-color:#fff" id="stop4416" offset="1"/></linearGradient><path id="path4418" fill="url(#XMLID_62_)" d="M8.371,74.852l27.032,9.367c-1.534-1.131-2.951-2.385-4.246-3.738L7.501,72.283 C7.769,73.147,8.057,74.005,8.371,74.852z"/><linearGradient id="XMLID_63_" x1="28.956" x2="28.956" y1="71.6" y2="132.299" gradientUnits="userSpaceOnUse"><stop style="stop-color:#458cff" id="stop4421" offset="0"/><stop style="stop-color:#fff" id="stop4423" offset="1"/></linearGradient><path id="path4425" fill="url(#XMLID_63_)" d="M10.788,80.345l36.859,12.771l0.781-1.998L9.483,77.626C9.888,78.547,10.329,79.45,10.788,80.345 z"/><linearGradient id="XMLID_64_" x1="29.629" x2="29.629" y1="71.6" y2="132.298" gradientUnits="userSpaceOnUse"><stop style="stop-color:#458cff" id="stop4428" offset="0"/><stop style="stop-color:#fff" id="stop4430" offset="1"/></linearGradient><path id="path4432" fill="url(#XMLID_64_)" d="M14.332,86.23l31.711,10.986l0.782-1.998l-34.39-11.914 C13.033,84.298,13.664,85.275,14.332,86.23z"/><linearGradient id="XMLID_65_" x1="31.016" x2="31.016" y1="71.6" y2="132.299" gradientUnits="userSpaceOnUse"><stop style="stop-color:#458cff" id="stop4435" offset="0"/><stop style="stop-color:#fff" id="stop4437" offset="1"/></linearGradient><path id="path4439" fill="url(#XMLID_65_)" d="M19.839,92.792l24.601,8.523l0.781-1.996l-28.41-9.846C17.765,90.625,18.777,91.73,19.839,92.792 z"/><linearGradient id="XMLID_66_" x1="33.919" x2="33.919" y1="71.6" y2="132.299" gradientUnits="userSpaceOnUse"><stop style="stop-color:#458cff" id="stop4442" offset="0"/><stop style="stop-color:#fff" id="stop4444" offset="1"/></linearGradient><path id="path4446" fill="url(#XMLID_66_)" d="M31.671,101.548l11.166,3.867l0.781-1.996L24.22,96.699 C26.522,98.513,29.012,100.138,31.671,101.548z"/></g><linearGradient id="XMLID_67_" x1="36.756" x2="36.756" y1="71.597" y2="132.294" gradientUnits="userSpaceOnUse"><stop style="stop-color:#458cff" id="stop4449" offset="0"/><stop style="stop-color:#fff" id="stop4451" offset="1"/></linearGradient><path id="path4453" fill="url(#XMLID_67_)" d="M3.417,31.629L3.417,31.629C-6.571,57.173,6.085,86.08,31.63,96.068l5.657,2.211l6.083-15.559 l-5.658-2.211c-16.964-6.634-25.37-25.832-18.737-42.796s25.831-25.37,42.795-18.736l5.658,2.211l6.084-15.559l-5.658-2.212 C42.31-6.57,13.404,6.085,3.417,31.629z"/></g><g id="g4455"><linearGradient id="XMLID_68_" x1="268.606" x2="268.606" y1="71.599" y2="132.297" gradientUnits="userSpaceOnUse"><stop style="stop-color:#458cff" id="stop4458" offset="0"/><stop style="stop-color:#fff" id="stop4460" offset="1"/></linearGradient><path id="path4462" fill="url(#XMLID_68_)" d="M264.236,67.276c-0.168-3.205,0.662-6.361,2.492-9.469c1.828-3.107,5.662-4.773,11.498-4.996 v-5.25c-4.145,0.057-7.289,0.893-9.43,2.508c-2.143,1.615-3.787,3.773-4.936,6.473v-7.855h-4.875v44.125h5.25V67.276z"/><linearGradient id="XMLID_69_" x1="231.377" x2="231.377" y1="71.598" y2="132.298" gradientUnits="userSpaceOnUse"><stop style="stop-color:#458cff" id="stop4465" offset="0"/><stop style="stop-color:#fff" id="stop4467" offset="1"/></linearGradient><path id="path4469" fill="url(#XMLID_69_)" d="M241.611,63.753c-0.07,0.672-0.242,1.188-0.52,1.551c-1.15,0.84-3.303,1.391-6.459,1.656 s-6.563,0.699-10.223,1.301s-6.809,1.859-9.445,3.773c-2.637,1.916-4.012,4.957-4.123,9.122c0.027,3.66,1.287,6.678,3.779,9.053 s6.076,3.615,10.752,3.729c4.389-0.168,7.918-1.063,10.588-2.682c2.668-1.619,4.688-3.211,6.059-4.775 c-0.168,2.195,0.285,3.854,1.361,4.979s2.719,1.701,4.928,1.729c1.033-0.057,1.844-0.141,2.432-0.25 c0.586-0.111,0.979-0.166,1.174-0.166v-3.709c-0.225,0-0.49,0.021-0.797,0.063c-0.309,0.043-0.588,0.063-0.838,0.063 c-1.326-0.027-2.217-0.246-2.672-0.656c-0.457-0.41-0.67-0.883-0.641-1.422V59.603c0.027-3.232-1.27-6.02-3.891-8.361 c-2.621-2.34-6.775-3.566-12.463-3.68c-6.094,0.168-10.543,1.693-13.352,4.58s-4.197,6.127-4.17,9.725h5 c0.082-2.602,1.074-4.865,2.973-6.791s5.166-2.93,9.801-3.014c5.592,0.277,8.869,1.607,9.83,3.986 c0.961,2.381,1.301,4.082,1.021,5.105C241.717,62.216,241.682,63.083,241.611,63.753z M241.717,77.38 c-0.168,3.727-1.793,6.661-4.875,8.801c-3.082,2.143-6.682,3.229-10.799,3.256c-3.359-0.084-5.859-0.918-7.496-2.502 c-1.637-1.582-2.455-3.467-2.455-5.654c0.055-2.766,0.986-4.807,2.793-6.122s4.076-2.23,6.807-2.748 c2.73-0.516,5.537-0.928,8.422-1.236c2.883-0.307,5.418-0.781,7.604-1.426V77.38z"/><linearGradient id="XMLID_70_" x1="114.657" x2="114.657" y1="71.598" y2="132.3" gradientUnits="userSpaceOnUse"><stop style="stop-color:#458cff" id="stop4472" offset="0"/><stop style="stop-color:#fff" id="stop4474" offset="1"/></linearGradient><path id="path4476" fill="url(#XMLID_70_)" d="M116.295,94.437c8.059-0.309,14.08-2.654,18.068-7.041s5.982-9.235,5.982-14.543h-5.5 c-0.057,4.674-1.707,8.614-4.953,11.819s-7.695,4.877-13.348,5.016c-8.226-0.363-13.957-3.355-17.187-8.979 c-3.232-5.624-4.777-11.764-4.637-18.422c0.055-8.557,1.924-15.254,5.604-20.092s8.932-7.299,15.759-7.383 c6.338,0.254,10.953,1.969,13.844,5.148s4.32,6.34,4.293,9.477h5.625c0.027-4.51-1.855-8.838-5.646-12.984 c-3.793-4.146-9.732-6.359-17.82-6.641c-8.548,0.084-15.232,2.959-20.052,8.623s-7.271,13.531-7.355,23.6 c-0.086,8.748,2.023,16.252,6.326,22.51C99.598,90.804,106.598,94.101,116.295,94.437z"/><linearGradient id="XMLID_71_" x1="153.124" x2="153.124" y1="71.601" y2="132.299" gradientUnits="userSpaceOnUse"><stop style="stop-color:#458cff" id="stop4479" offset="0"/><stop style="stop-color:#fff" id="stop4481" offset="1"/></linearGradient><rect id="rect4483" width="5" height="61.25" x="150.624" y="31.562" fill="url(#XMLID_71_)"/><linearGradient id="XMLID_72_" x1="184.681" x2="184.681" y1="71.598" y2="132.298" gradientUnits="userSpaceOnUse"><stop style="stop-color:#458cff" id="stop4486" offset="0"/><stop style="stop-color:#fff" id="stop4488" offset="1"/></linearGradient><path id="path4490" fill="url(#XMLID_72_)" d="M184.93,93.937c6.076-0.281,10.648-1.998,13.715-5.154s4.6-6.301,4.6-9.43h-5.125 c-0.029,2.446-1.174,4.745-3.436,6.897s-5.373,3.299-9.334,3.438c-5.107-0.168-8.846-2.002-11.217-5.504 s-3.541-7.668-3.514-12.497h33.25c0-4.883-0.453-8.795-1.359-11.74c-0.906-2.943-2.279-5.281-4.119-7.012 c-1.063-1.166-2.678-2.332-4.844-3.498c-2.168-1.166-4.984-1.791-8.449-1.875c-5.988,0.027-10.732,2.037-14.23,6.029 c-3.5,3.992-5.291,9.783-5.373,17.375c-0.057,6.094,1.434,11.383,4.471,15.868C173,91.318,177.988,93.685,184.93,93.937z M174.678,56.771c2.482-3,5.871-4.568,10.168-4.709c4.451,0.084,7.832,1.578,10.141,4.48s3.479,6.617,3.508,11.145h-27.625 C170.924,63.409,172.193,59.771,174.678,56.771z"/><linearGradient id="XMLID_73_" x1="463.526" x2="463.526" y1="71.598" y2="132.298" gradientUnits="userSpaceOnUse"><stop style="stop-color:#458cff" id="stop4493" offset="0"/><stop style="stop-color:#fff" id="stop4495" offset="1"/></linearGradient><path id="path4497" fill="url(#XMLID_73_)" d="M481.355,59.946c-0.906-2.943-2.279-5.281-4.119-7.012c-1.063-1.166-2.678-2.332-4.844-3.498 c-2.168-1.166-4.984-1.791-8.449-1.875c-5.988,0.027-10.732,2.037-14.23,6.029c-3.5,3.992-5.291,9.783-5.373,17.375 c-0.057,6.094,1.434,11.383,4.471,15.868c3.035,4.484,8.023,6.852,14.965,7.104c6.076-0.281,10.648-1.998,13.715-5.154 s4.6-6.301,4.6-9.43h-5.125c-0.029,2.446-1.174,4.745-3.436,6.897s-5.373,3.299-9.334,3.438 c-5.107-0.168-8.846-2.002-11.217-5.504s-3.541-7.668-3.514-12.497h33.25C482.715,66.804,482.262,62.892,481.355,59.946z M449.715,67.687c0.055-4.277,1.324-7.916,3.809-10.916c2.482-3,5.871-4.568,10.168-4.709c4.451,0.084,7.832,1.578,10.141,4.48 s3.479,6.617,3.508,11.145H449.715z"/><linearGradient id="XMLID_74_" x1="414.711" x2="414.711" y1="71.6" y2="132.297" gradientUnits="userSpaceOnUse"><stop style="stop-color:#458cff" id="stop4500" offset="0"/><stop style="stop-color:#fff" id="stop4502" offset="1"/></linearGradient><path id="path4504" fill="url(#XMLID_74_)" d="M429.711,56.374c-1.004-2.145-2.74-4.121-5.209-5.93s-5.654-2.77-9.557-2.883 c-6.898,0.141-12.004,2.381-15.313,6.721s-4.949,9.846-4.922,16.516c0.055,7.127,1.773,12.737,5.152,16.831 s8.07,6.195,14.074,6.309c4.238-0.113,7.621-1.014,10.145-2.701c2.523-1.689,4.4-3.666,5.629-5.93v7.506h5v-61.25h-5V56.374z M425.936,85.039c-2.711,3.043-6.375,4.551-10.99,4.523c-5.527-0.223-9.428-2.24-11.701-6.053 c-2.273-3.811-3.369-8.02-3.283-12.627c-0.057-5.34,1.107-9.777,3.492-13.311s6.342-5.369,11.869-5.51 c4.754,0.057,8.395,1.727,10.926,5.008c2.531,3.283,3.811,7.916,3.838,13.896C430.029,77.306,428.646,81.996,425.936,85.039z"/><linearGradient id="XMLID_75_" x1="367.182" x2="367.182" y1="71.598" y2="132.298" gradientUnits="userSpaceOnUse"><stop style="stop-color:#458cff" id="stop4507" offset="0"/><stop style="stop-color:#fff" id="stop4509" offset="1"/></linearGradient><path id="path4511" fill="url(#XMLID_75_)" d="M367.164,47.562c-7.473,0.223-12.756,2.609-15.848,7.16s-4.596,9.881-4.512,15.992 c-0.111,6.094,1.371,11.424,4.449,15.993c3.078,4.57,8.381,6.979,15.91,7.23c7.803-0.309,13.188-2.807,16.152-7.502 s4.377-9.936,4.238-15.721c0.082-6.363-1.455-11.764-4.615-16.201S374.52,47.757,367.164,47.562z M378.76,84.138 c-2.391,3.504-6.256,5.313-11.596,5.424c-5.289-0.111-9.135-1.926-11.541-5.445c-2.406-3.518-3.596-8.014-3.568-13.487 c-0.027-5.367,1.203-9.777,3.693-13.227s6.379-5.23,11.668-5.342c5.367,0.168,9.205,2.039,11.512,5.613s3.432,7.949,3.377,13.123 C382.332,76.188,381.15,80.634,378.76,84.138z"/><g id="g4513"><linearGradient id="XMLID_76_" x1="312.768" x2="312.768" y1="71.6" y2="132.299" gradientUnits="userSpaceOnUse"><stop style="stop-color:#458cff" id="stop4516" offset="0"/><stop style="stop-color:#fff" id="stop4518" offset="1"/></linearGradient><path id="path4520" fill="url(#XMLID_76_)" d="M313.043,29.893c-7.198,0.132-13.027,1.608-17.498,4.417h34.445 C325.775,31.518,320.143,30.03,313.043,29.893z"/><linearGradient id="XMLID_77_" x1="312.542" x2="312.542" y1="71.6" y2="132.298" gradientUnits="userSpaceOnUse"><stop style="stop-color:#458cff" id="stop4523" offset="0"/><stop style="stop-color:#fff" id="stop4525" offset="1"/></linearGradient><path id="path4527" fill="url(#XMLID_77_)" d="M313.043,41.018c2.342,0.06,4.392,0.409,6.167,1.032h17.711c-1.063-2.07-2.484-3.979-4.31-5.706 c-0.344-0.325-0.725-0.616-1.095-0.917h-37.586c-1.46,1.111-2.755,2.385-3.874,3.831c-0.688,0.889-1.308,1.827-1.893,2.792 h18.388C308.434,41.426,310.597,41.081,313.043,41.018z"/><linearGradient id="XMLID_78_" x1="294.419" x2="294.419" y1="71.6" y2="132.298" gradientUnits="userSpaceOnUse"><stop style="stop-color:#458cff" id="stop4530" offset="0"/><stop style="stop-color:#fff" id="stop4532" offset="1"/></linearGradient><path id="path4534" fill="url(#XMLID_78_)" d="M299.527,47.436c1.113-1.815,2.637-3.224,4.523-4.27h-16.517 c-1.128,2.052-2.058,4.249-2.746,6.623h13.511C298.67,48.975,299.069,48.183,299.527,47.436z"/><linearGradient id="XMLID_79_" x1="330.345" x2="330.345" y1="71.6" y2="132.298" gradientUnits="userSpaceOnUse"><stop style="stop-color:#458cff" id="stop4537" offset="0"/><stop style="stop-color:#fff" id="stop4539" offset="1"/></linearGradient><path id="path4541" fill="url(#XMLID_79_)" d="M323.268,44.354c1.841,1.619,2.979,3.432,3.426,5.436h12.385 c-0.186-2.364-0.716-4.574-1.607-6.623h-15.859C322.204,43.521,322.764,43.91,323.268,44.354z"/><linearGradient id="XMLID_80_" x1="290.603" x2="290.603" y1="71.6" y2="132.298" gradientUnits="userSpaceOnUse"><stop style="stop-color:#458cff" id="stop4544" offset="0"/><stop style="stop-color:#fff" id="stop4546" offset="1"/></linearGradient><path id="path4548" fill="url(#XMLID_80_)" d="M297.813,50.905H284.51c-0.535,2.088-0.907,4.297-1.117,6.623h12.797 C296.486,55.132,297.021,52.919,297.813,50.905z"/><linearGradient id="XMLID_81_" x1="289.611" x2="289.611" y1="71.6" y2="132.298" gradientUnits="userSpaceOnUse"><stop style="stop-color:#458cff" id="stop4551" offset="0"/><stop style="stop-color:#fff" id="stop4553" offset="1"/></linearGradient><path id="path4555" fill="url(#XMLID_81_)" d="M295.914,62.828c-0.026-1.452,0.026-2.843,0.146-4.183h-12.77 c-0.087,1.306-0.139,2.637-0.127,4.015c-0.006,0.89,0.031,1.751,0.07,2.608h12.757C295.94,64.476,295.91,63.665,295.914,62.828z"/><linearGradient id="XMLID_82_" x1="290.445" x2="290.445" y1="71.6" y2="132.298" gradientUnits="userSpaceOnUse"><stop style="stop-color:#458cff" id="stop4558" offset="0"/><stop style="stop-color:#fff" id="stop4560" offset="1"/></linearGradient><path id="path4562" fill="url(#XMLID_82_)" d="M296.09,66.386h-12.798c0.164,2.328,0.509,4.531,1.017,6.623h13.29 C296.828,71.015,296.329,68.804,296.09,66.386z"/><linearGradient id="XMLID_83_" x1="294.037" x2="294.037" y1="71.6" y2="132.298" gradientUnits="userSpaceOnUse"><stop style="stop-color:#458cff" id="stop4565" offset="0"/><stop style="stop-color:#fff" id="stop4567" offset="1"/></linearGradient><path id="path4569" fill="url(#XMLID_83_)" d="M299.986,77.445c-0.744-1.022-1.377-2.134-1.917-3.319h-13.467 c0.655,2.361,1.525,4.574,2.636,6.624h16.233C302.125,79.873,300.957,78.78,299.986,77.445z"/><linearGradient id="XMLID_84_" x1="330.342" x2="330.342" y1="71.6" y2="132.298" gradientUnits="userSpaceOnUse"><stop style="stop-color:#458cff" id="stop4572" offset="0"/><stop style="stop-color:#fff" id="stop4574" offset="1"/></linearGradient><path id="path4576" fill="url(#XMLID_84_)" d="M323.15,79.545c-0.498,0.445-1.038,0.839-1.598,1.205h15.771c0.94-2.025,1.542-4.233,1.808-6.624 h-12.31C326.271,76.035,325.053,77.843,323.15,79.545z"/><linearGradient id="XMLID_85_" x1="312.315" x2="312.315" y1="71.6" y2="132.298" gradientUnits="userSpaceOnUse"><stop style="stop-color:#458cff" id="stop4579" offset="0"/><stop style="stop-color:#fff" id="stop4581" offset="1"/></linearGradient><path id="path4583" fill="url(#XMLID_85_)" d="M331.658,87.972c2.159-1.781,3.833-3.826,5.077-6.105h-17.263c-1.959,0.846-4.209,1.32-6.766,1.4 c-2.716-0.053-5.084-0.529-7.129-1.4h-17.682c0.683,1.137,1.413,2.24,2.244,3.275c1,1.246,2.135,2.355,3.39,3.348h37.438 C331.196,88.314,331.437,88.156,331.658,87.972z"/><linearGradient id="XMLID_86_" x1="312.245" x2="312.245" y1="71.6" y2="132.299" gradientUnits="userSpaceOnUse"><stop style="stop-color:#458cff" id="stop4586" offset="0"/><stop style="stop-color:#fff" id="stop4588" offset="1"/></linearGradient><path id="path4590" fill="url(#XMLID_86_)" d="M329.415,89.607h-34.339c4.486,2.947,10.359,4.504,17.631,4.66 C319.3,94.148,324.863,92.587,329.415,89.607z"/></g></g></g></svg>